<svg width="372" height="364" viewBox="0 0 372 364" fill="none" xmlns="http://www.w3.org/2000/svg">
<g clip-path="url(#clip0_62_185)">
<path d="M255.452 108.892L290.388 139.52C291.821 139.93 292.838 138.477 294.033 137.928C302.347 134.094 314.156 127.933 323.048 132.034L305.665 153.317L341.062 185.015C339.374 186.076 337.695 184.104 336.416 183.177C324.873 174.784 314.23 163.833 302.372 155.674C278.936 179.952 253.138 201.732 227.697 223.838L174.496 268.139L249.609 282.338C256.066 284.666 262.504 287.071 268.97 289.345C270.39 289.85 279.661 291.807 278.964 293.57L275.169 303.165L243.642 301.308L162.551 286.202C162.689 284.608 162.878 282.994 163.472 281.499C173.457 256.809 183.29 232.009 192.971 207.23L194.532 205.315C195.117 204.529 195.714 203.748 196.372 203.023C197.03 202.297 197.678 201.596 198.438 201.029C225.994 180.057 254.048 159.317 284.166 142.184L248.751 113.015L248.941 111.729C248.608 110.202 249.823 110.26 251.037 110.746C260.278 118.336 269.628 125.773 279.065 133.077L253.503 109.996C253.246 108.031 254.095 108.144 255.459 108.909L255.452 108.892Z" fill="white"/>
<path d="M181.074 74.0851C174.942 90.6172 168.301 108.482 161.384 124.985C158.928 124.6 143.326 121.368 143.266 119.902L144.602 117.818C146.741 115.755 148.634 112.816 151.4 111.213C151.647 110.907 151.114 110.689 150.727 110.663C147.213 110.416 134.428 115.382 129.463 116.142C124.498 116.902 116.934 117.214 111.55 117.463C108.058 117.624 101.001 118.998 104.639 113.427L125.367 108.655L123.681 99.3672L122.549 99.2163L88.6107 109.211C87.7109 110.458 95.0014 122.002 94.0168 124.524C93.7172 125.277 93.493 125.465 92.8163 125.84C92.0535 126.249 83.2811 128.287 82.5922 128.101L59.5731 114.468C58.2931 112.627 63.3573 106.337 64.8316 104.883C66.4337 103.3 72.7606 102.064 75.3342 101.36C110.376 91.6473 145.887 83.3786 181.039 74.0986L181.074 74.0851Z" fill="white"/>
<path d="M153.824 146.041C146.201 150.775 139.441 156.77 132.167 162.012C128.632 164.564 124.901 166.745 121.3 169.154L119.158 169.718C112.675 168.006 106.239 166.186 99.8448 164.271C100.134 163.214 100.794 162.418 101.477 161.603C114.516 145.842 129.918 131.922 144.602 117.818C143.62 119.614 144.062 119.549 145.801 120.107C150.733 121.714 156.007 122.372 160.896 124.174L161.984 123.706L181.086 74.0903L181.807 73.7771C181.438 76.097 181.03 78.4424 180.198 80.6462C172.301 101.527 164.24 122.422 155.82 143.062L153.842 146.063L153.824 146.041Z" fill="#E4E4E5"/>
<path d="M238.627 93.8364C239.47 96.3849 238.084 99.7302 235.751 101.094C234.603 105.627 233.434 110.178 231.781 114.562C221.043 142.945 209.526 171.088 197.831 199.082L194.549 205.308C184.158 231.489 174.327 260.966 162.568 286.195C145.573 322.658 95.3602 302.127 106.376 266.067C107.034 263.902 108.149 261.736 108.925 259.593C109.898 251.763 113.483 243.302 117.95 236.78C129.733 206.486 141.831 176.258 153.824 146.041C163.311 122.132 171.995 97.317 181.8 73.7599C182.735 71.5155 184.541 67.6973 185.702 65.4233C203.002 31.4022 252.069 51.5201 240.969 87.8709C240.349 89.8821 239.335 91.8498 238.615 93.8312L238.627 93.8364Z" fill="#13025E"/>
<path d="M93.7293 214.611C98.1445 215.964 91.3794 221.086 89.8122 218.465C83.531 216.584 86.019 217.583 80.6814 218.708C74.1683 220.076 72.6878 214.67 74.7622 209.514C68.0675 209.663 64.0608 205.081 67.0523 198.672C60.0614 198.977 56.0136 194.391 59.3423 187.829C52.365 188.168 48.0154 183.523 51.6324 176.986C37.3322 177.444 42.1877 164.889 51.5052 160.323C52.2299 159.968 52.6401 159.092 53.6434 159.8C45.5737 168.474 44.8364 174.782 57.8807 168.075C60.8384 166.555 64.8633 161.864 67.7555 165.077C70.3169 167.904 62.845 172.39 61.0024 174.296C52.4755 183.07 56.4612 183.609 65.231 179.089C67.9149 177.706 74.8179 171.318 76.2305 176.88C76.8965 179.508 70.3292 183.391 68.412 185.436C67.5363 186.366 63.355 191.088 63.7292 191.964C66.4328 193.384 70.0646 191.33 72.5796 190.074C75.0946 188.817 83.8438 181.365 83.9808 188.154C84.0381 190.674 78.122 194.141 76.1219 196.278C74.5537 197.947 72.4842 200.211 71.8741 202.397C72.45 204.872 79.1948 201.466 80.6254 200.735C83.3901 199.33 87.4152 195.196 90.3476 196.516C95.8478 199.011 85.7856 204.993 83.8319 207.121C82.4206 208.659 80.9009 210.249 80.2778 212.302C84.984 210.859 90.2948 210.221 93.736 214.628L93.7293 214.611Z" fill="white"/>
<path d="M108.925 259.593L89.8752 233.476C88.6972 233.561 88.2251 231.83 88.8525 231.077C89.9416 229.755 98.2316 223.914 100.31 222.482C103.634 219.596 105.557 219.207 106.084 221.304L117.944 236.792C114.987 244.399 111.716 251.942 108.92 259.605L108.925 259.593Z" fill="white"/>
<path d="M99.8448 164.271C100.229 164.01 100.702 163.546 101.156 163.616L121.3 169.154C118.705 170.889 116.307 173.024 113.597 174.695C109.618 177.153 83.978 193.071 90.3352 177.592C91.5123 174.726 97.3619 165.912 99.8448 164.271Z" fill="white"/>
<path d="M248.946 111.718L247.399 112.127C243.37 109.232 239.556 106.074 235.934 102.671L235.745 101.106C236.671 98.6869 237.732 96.2836 238.622 93.8484L255.464 108.897L253.966 108.9L280.408 132.678C282.043 134.816 279.722 134.874 277.994 133.736C268.92 127.76 259.892 118.239 250.778 111.931C250.301 111.224 249.042 111.759 248.958 111.723L248.946 111.718Z" fill="#C2C2C4"/>
<path d="M106.089 221.292C104.742 220.392 104.761 220.97 103.829 221.505C98.966 224.291 94.7607 229.003 89.6942 231.6L89.8926 233.469C87.4289 234.477 82.1143 226.973 82.188 225.822C82.276 224.278 87.1916 221.372 88.6866 220.198C89.3504 219.689 90.2364 219.619 89.8348 218.446C90.8937 218.765 93.5194 217.057 94.2575 216.181C94.7535 215.599 94.1284 215.07 93.7518 214.593C96.7042 216.62 98.2702 211.813 101.185 211.7C103.314 214.637 107.154 217.408 106.1 221.268L106.089 221.292Z" fill="#C0C0C2"/>
<path d="M215.962 223.973C227.018 209.229 241.979 196.386 258.671 188.702C247.669 203.683 232.615 215.887 215.962 223.973Z" fill="#C1C1C3"/>
<path d="M275.467 294.855C274.296 295.514 252.387 289.806 248.97 289.829C245.995 289.26 247.362 285.992 248.207 284.051C249.148 283.463 262.954 288.821 265.249 289.607C268.708 290.799 272.699 291.455 276.087 293.301C275.844 293.694 275.643 294.747 275.472 294.843L275.467 294.855Z" fill="#C1C1C3"/>
<path d="M274.024 301.441C272.885 302.256 249.442 299.743 246.051 299.934C244.629 299.5 245.591 295.229 246.383 294.719C247.601 293.952 271.439 298.932 274.653 299.932C274.412 300.355 274.3 301.233 274.017 301.423L274.024 301.441Z" fill="#C2C1C3"/>
<path d="M84.798 103.758C84.418 102.993 89.1108 101.188 89.7938 100.93C95.7821 98.6057 103.817 96.4601 110.235 97.0458C108.147 99.515 85.5663 105.333 84.7927 103.77L84.798 103.758Z" fill="#C3C3C5"/>
<path d="M240.047 85.2739L159.848 288.346C143.247 318.309 99.0751 300.865 107.523 267.722L187.911 64.5749C204.489 35.3859 247.884 52.5198 240.042 85.2859L240.047 85.2739Z" fill="#06297A"/>
<path d="M189.717 190.216L178.052 185.605C178.052 185.605 176.985 186.025 176.964 186.073L172.354 197.736L160.689 193.126C160.689 193.126 160.196 192.098 160.222 192.038L164.832 180.375L153.167 175.764C152.593 175.543 152.92 174.203 153.073 173.656C153.55 171.84 155.875 165.781 156.804 164.304C157.052 163.899 157.727 163.167 158.092 163.311L169.757 167.922L174.367 156.258C174.367 156.258 175.395 155.765 175.454 155.791L187.119 160.402L182.51 172.065C182.51 172.065 182.929 173.132 182.977 173.153L194.642 177.763L189.722 190.204L189.717 190.216Z" fill="#F0F1F1"/>
<path d="M217.698 78.2194C215.988 83.9466 206.135 80.7387 209.034 74.6736C211.284 69.9656 219.324 72.7834 217.698 78.2194Z" fill="#F0EFEE"/>
</g>
<defs>
<clipPath id="clip0_62_185">
<rect width="287" height="272" fill="white" transform="translate(108.62) rotate(23.5369)"/>
</clipPath>
</defs>
</svg>
