<svg width="542" height="364" viewBox="0 0 542 364" fill="none" xmlns="http://www.w3.org/2000/svg">
<path d="M356.509 334.126L359.058 324.203H360.394L360.244 326.761L357.52 337H356.131L356.509 334.126ZM354.602 324.203L356.667 334.047L356.852 337H355.375L352.413 324.203H354.602ZM363.285 334.021L365.324 324.203H367.521L364.56 337H363.083L363.285 334.021ZM360.912 324.203L363.435 334.152L363.804 337H362.415L359.734 326.761L359.594 324.203H360.912ZM372.856 337.176C372.153 337.176 371.518 337.062 370.949 336.833C370.387 336.599 369.906 336.273 369.508 335.857C369.115 335.441 368.813 334.952 368.603 334.39C368.392 333.827 368.286 333.221 368.286 332.57V332.219C368.286 331.475 368.395 330.801 368.611 330.197C368.828 329.594 369.13 329.078 369.517 328.65C369.903 328.217 370.36 327.886 370.888 327.657C371.415 327.429 371.986 327.314 372.602 327.314C373.281 327.314 373.876 327.429 374.386 327.657C374.896 327.886 375.317 328.208 375.651 328.624C375.991 329.034 376.243 329.523 376.407 330.092C376.577 330.66 376.662 331.287 376.662 331.973V332.878H369.314V331.357H374.57V331.19C374.559 330.81 374.482 330.452 374.342 330.118C374.207 329.784 373.999 329.515 373.718 329.31C373.437 329.104 373.062 329.002 372.593 329.002C372.241 329.002 371.928 329.078 371.652 329.23C371.383 329.377 371.157 329.591 370.976 329.872C370.794 330.153 370.653 330.493 370.554 330.892C370.46 331.284 370.413 331.727 370.413 332.219V332.57C370.413 332.986 370.469 333.373 370.58 333.73C370.697 334.082 370.867 334.39 371.09 334.653C371.312 334.917 371.582 335.125 371.898 335.277C372.215 335.424 372.575 335.497 372.979 335.497C373.489 335.497 373.943 335.395 374.342 335.189C374.74 334.984 375.086 334.694 375.379 334.319L376.495 335.4C376.29 335.699 376.023 335.986 375.695 336.262C375.367 336.531 374.966 336.751 374.491 336.921C374.022 337.091 373.478 337.176 372.856 337.176ZM378.323 323.5H380.441V334.97L380.239 337H378.323V323.5ZM386.646 332.157V332.342C386.646 333.045 386.567 333.692 386.409 334.284C386.257 334.87 386.022 335.38 385.706 335.813C385.396 336.247 385.009 336.584 384.546 336.824C384.089 337.059 383.559 337.176 382.955 337.176C382.363 337.176 381.848 337.064 381.408 336.842C380.969 336.619 380.6 336.303 380.301 335.893C380.008 335.482 379.771 334.993 379.589 334.425C379.407 333.856 379.278 333.229 379.202 332.544V331.955C379.278 331.264 379.407 330.637 379.589 330.074C379.771 329.506 380.008 329.017 380.301 328.606C380.6 328.19 380.966 327.871 381.399 327.648C381.839 327.426 382.352 327.314 382.938 327.314C383.547 327.314 384.083 327.432 384.546 327.666C385.015 327.9 385.404 328.234 385.715 328.668C386.025 329.096 386.257 329.605 386.409 330.197C386.567 330.789 386.646 331.442 386.646 332.157ZM384.528 332.342V332.157C384.528 331.729 384.493 331.328 384.423 330.953C384.353 330.572 384.235 330.238 384.071 329.951C383.913 329.664 383.696 329.438 383.421 329.274C383.151 329.104 382.814 329.02 382.41 329.02C382.035 329.02 381.713 329.084 381.443 329.213C381.174 329.342 380.948 329.518 380.767 329.74C380.585 329.963 380.441 330.221 380.336 330.514C380.236 330.807 380.169 331.123 380.134 331.463V333.054C380.187 333.493 380.298 333.897 380.468 334.267C380.644 334.63 380.89 334.923 381.206 335.146C381.522 335.362 381.93 335.471 382.428 335.471C382.82 335.471 383.151 335.392 383.421 335.233C383.69 335.075 383.904 334.855 384.062 334.574C384.227 334.287 384.344 333.953 384.414 333.572C384.49 333.191 384.528 332.781 384.528 332.342ZM394.24 335.031V323.5H396.367V337H394.442L394.24 335.031ZM388.053 332.351V332.166C388.053 331.445 388.138 330.789 388.308 330.197C388.478 329.6 388.724 329.087 389.046 328.659C389.368 328.226 389.761 327.895 390.224 327.666C390.687 327.432 391.208 327.314 391.788 327.314C392.362 327.314 392.866 327.426 393.3 327.648C393.733 327.871 394.103 328.19 394.407 328.606C394.712 329.017 394.955 329.509 395.137 330.083C395.318 330.651 395.447 331.284 395.523 331.981V332.57C395.447 333.25 395.318 333.871 395.137 334.434C394.955 334.996 394.712 335.482 394.407 335.893C394.103 336.303 393.73 336.619 393.291 336.842C392.857 337.064 392.351 337.176 391.771 337.176C391.196 337.176 390.678 337.056 390.215 336.815C389.758 336.575 389.368 336.238 389.046 335.805C388.724 335.371 388.478 334.861 388.308 334.275C388.138 333.684 388.053 333.042 388.053 332.351ZM390.171 332.166V332.351C390.171 332.784 390.209 333.188 390.285 333.563C390.367 333.938 390.493 334.27 390.663 334.557C390.833 334.838 391.053 335.061 391.322 335.225C391.598 335.383 391.926 335.462 392.307 335.462C392.787 335.462 393.183 335.356 393.493 335.146C393.804 334.935 394.047 334.65 394.223 334.293C394.404 333.93 394.527 333.525 394.592 333.08V331.489C394.557 331.144 394.483 330.821 394.372 330.522C394.267 330.224 394.123 329.963 393.941 329.74C393.76 329.512 393.534 329.336 393.265 329.213C393.001 329.084 392.688 329.02 392.324 329.02C391.938 329.02 391.609 329.102 391.34 329.266C391.07 329.43 390.848 329.655 390.672 329.942C390.502 330.229 390.376 330.563 390.294 330.944C390.212 331.325 390.171 331.732 390.171 332.166ZM402.774 337.176C402.071 337.176 401.436 337.062 400.867 336.833C400.305 336.599 399.824 336.273 399.426 335.857C399.033 335.441 398.731 334.952 398.521 334.39C398.31 333.827 398.204 333.221 398.204 332.57V332.219C398.204 331.475 398.312 330.801 398.529 330.197C398.746 329.594 399.048 329.078 399.435 328.65C399.821 328.217 400.278 327.886 400.806 327.657C401.333 327.429 401.904 327.314 402.52 327.314C403.199 327.314 403.794 327.429 404.304 327.657C404.813 327.886 405.235 328.208 405.569 328.624C405.909 329.034 406.161 329.523 406.325 330.092C406.495 330.66 406.58 331.287 406.58 331.973V332.878H399.232V331.357H404.488V331.19C404.477 330.81 404.4 330.452 404.26 330.118C404.125 329.784 403.917 329.515 403.636 329.31C403.354 329.104 402.979 329.002 402.511 329.002C402.159 329.002 401.846 329.078 401.57 329.23C401.301 329.377 401.075 329.591 400.894 329.872C400.712 330.153 400.571 330.493 400.472 330.892C400.378 331.284 400.331 331.727 400.331 332.219V332.57C400.331 332.986 400.387 333.373 400.498 333.73C400.615 334.082 400.785 334.39 401.008 334.653C401.23 334.917 401.5 335.125 401.816 335.277C402.133 335.424 402.493 335.497 402.897 335.497C403.407 335.497 403.861 335.395 404.26 335.189C404.658 334.984 405.004 334.694 405.297 334.319L406.413 335.4C406.208 335.699 405.941 335.986 405.613 336.262C405.285 336.531 404.884 336.751 404.409 336.921C403.94 337.091 403.396 337.176 402.774 337.176ZM413.567 334.425C413.567 334.214 413.515 334.023 413.409 333.854C413.304 333.678 413.102 333.52 412.803 333.379C412.51 333.238 412.076 333.109 411.502 332.992C410.998 332.881 410.535 332.749 410.113 332.597C409.697 332.438 409.34 332.248 409.041 332.025C408.742 331.803 408.511 331.539 408.347 331.234C408.183 330.93 408.101 330.578 408.101 330.18C408.101 329.793 408.186 329.427 408.355 329.081C408.525 328.735 408.769 328.431 409.085 328.167C409.401 327.903 409.785 327.695 410.236 327.543C410.693 327.391 411.203 327.314 411.766 327.314C412.562 327.314 413.245 327.449 413.813 327.719C414.388 327.982 414.827 328.343 415.132 328.8C415.437 329.251 415.589 329.761 415.589 330.329H413.471C413.471 330.077 413.406 329.843 413.277 329.626C413.154 329.403 412.967 329.225 412.715 329.09C412.463 328.949 412.146 328.879 411.766 328.879C411.402 328.879 411.101 328.938 410.86 329.055C410.626 329.166 410.45 329.312 410.333 329.494C410.222 329.676 410.166 329.875 410.166 330.092C410.166 330.25 410.195 330.394 410.254 330.522C410.318 330.646 410.424 330.76 410.57 330.865C410.717 330.965 410.916 331.059 411.168 331.146C411.426 331.234 411.748 331.319 412.135 331.401C412.861 331.554 413.485 331.75 414.007 331.99C414.534 332.225 414.938 332.529 415.22 332.904C415.501 333.273 415.642 333.742 415.642 334.311C415.642 334.732 415.551 335.119 415.369 335.471C415.193 335.816 414.936 336.118 414.596 336.376C414.256 336.628 413.849 336.824 413.374 336.965C412.905 337.105 412.378 337.176 411.792 337.176C410.931 337.176 410.201 337.023 409.604 336.719C409.006 336.408 408.552 336.013 408.241 335.532C407.937 335.046 407.784 334.542 407.784 334.021H409.832C409.855 334.413 409.964 334.727 410.157 334.961C410.356 335.189 410.603 335.356 410.896 335.462C411.194 335.562 411.502 335.611 411.818 335.611C412.199 335.611 412.519 335.562 412.776 335.462C413.034 335.356 413.23 335.216 413.365 335.04C413.5 334.858 413.567 334.653 413.567 334.425ZM419.764 327.49V337H417.637V327.49H419.764ZM417.496 324.994C417.496 324.672 417.602 324.405 417.812 324.194C418.029 323.978 418.328 323.869 418.709 323.869C419.084 323.869 419.38 323.978 419.597 324.194C419.813 324.405 419.922 324.672 419.922 324.994C419.922 325.311 419.813 325.574 419.597 325.785C419.38 325.996 419.084 326.102 418.709 326.102C418.328 326.102 418.029 325.996 417.812 325.785C417.602 325.574 417.496 325.311 417.496 324.994ZM428.175 327.49H430.1V336.736C430.1 337.592 429.918 338.318 429.555 338.916C429.191 339.514 428.685 339.968 428.034 340.278C427.384 340.595 426.631 340.753 425.775 340.753C425.412 340.753 425.008 340.7 424.562 340.595C424.123 340.489 423.695 340.319 423.279 340.085C422.869 339.856 422.526 339.555 422.251 339.18L423.244 337.932C423.584 338.336 423.959 338.632 424.369 338.819C424.779 339.007 425.21 339.101 425.661 339.101C426.147 339.101 426.561 339.01 426.9 338.828C427.246 338.652 427.513 338.392 427.7 338.046C427.888 337.7 427.981 337.278 427.981 336.78V329.644L428.175 327.49ZM421.715 332.351V332.166C421.715 331.445 421.803 330.789 421.979 330.197C422.154 329.6 422.406 329.087 422.734 328.659C423.062 328.226 423.461 327.895 423.93 327.666C424.398 327.432 424.929 327.314 425.521 327.314C426.136 327.314 426.66 327.426 427.094 327.648C427.533 327.871 427.899 328.19 428.192 328.606C428.485 329.017 428.714 329.509 428.878 330.083C429.048 330.651 429.174 331.284 429.256 331.981V332.57C429.18 333.25 429.051 333.871 428.869 334.434C428.688 334.996 428.447 335.482 428.148 335.893C427.85 336.303 427.48 336.619 427.041 336.842C426.607 337.064 426.095 337.176 425.503 337.176C424.923 337.176 424.398 337.056 423.93 336.815C423.467 336.575 423.068 336.238 422.734 335.805C422.406 335.371 422.154 334.861 421.979 334.275C421.803 333.684 421.715 333.042 421.715 332.351ZM423.833 332.166V332.351C423.833 332.784 423.874 333.188 423.956 333.563C424.044 333.938 424.176 334.27 424.352 334.557C424.533 334.838 424.762 335.061 425.037 335.225C425.318 335.383 425.649 335.462 426.03 335.462C426.528 335.462 426.936 335.356 427.252 335.146C427.574 334.935 427.82 334.65 427.99 334.293C428.166 333.93 428.289 333.525 428.359 333.08V331.489C428.324 331.144 428.251 330.821 428.14 330.522C428.034 330.224 427.891 329.963 427.709 329.74C427.527 329.512 427.299 329.336 427.023 329.213C426.748 329.084 426.423 329.02 426.048 329.02C425.667 329.02 425.336 329.102 425.055 329.266C424.773 329.43 424.542 329.655 424.36 329.942C424.185 330.229 424.053 330.563 423.965 330.944C423.877 331.325 423.833 331.732 423.833 332.166ZM434.397 329.521V337H432.279V327.49H434.274L434.397 329.521ZM434.02 331.894L433.334 331.885C433.34 331.211 433.434 330.593 433.615 330.03C433.803 329.468 434.061 328.984 434.389 328.58C434.723 328.176 435.121 327.865 435.584 327.648C436.047 327.426 436.562 327.314 437.131 327.314C437.588 327.314 438.001 327.379 438.37 327.508C438.745 327.631 439.064 327.833 439.328 328.114C439.598 328.396 439.803 328.762 439.943 329.213C440.084 329.658 440.154 330.206 440.154 330.856V337H438.027V330.848C438.027 330.391 437.96 330.03 437.825 329.767C437.696 329.497 437.506 329.307 437.254 329.195C437.008 329.078 436.7 329.02 436.331 329.02C435.968 329.02 435.643 329.096 435.355 329.248C435.068 329.4 434.825 329.608 434.626 329.872C434.433 330.136 434.283 330.44 434.178 330.786C434.072 331.132 434.02 331.501 434.02 331.894Z" fill="#06297A"/>
<path d="M5.01855 61H2.28516L2.30273 59.251H5.01855C5.80957 59.251 6.47168 59.0781 7.00488 58.7324C7.54395 58.3867 7.94824 57.8916 8.21777 57.2471C8.49316 56.6025 8.63086 55.835 8.63086 54.9443V54.25C8.63086 53.5586 8.55176 52.9463 8.39355 52.4131C8.24121 51.8799 8.0127 51.4316 7.70801 51.0684C7.40918 50.7051 7.04004 50.4297 6.60059 50.2422C6.16699 50.0547 5.66602 49.9609 5.09766 49.9609H2.23242V48.2031H5.09766C5.94727 48.2031 6.72363 48.3467 7.42676 48.6338C8.12988 48.915 8.73633 49.3223 9.24609 49.8555C9.76172 50.3887 10.1572 51.0273 10.4326 51.7715C10.708 52.5156 10.8457 53.3477 10.8457 54.2676V54.9443C10.8457 55.8643 10.708 56.6963 10.4326 57.4404C10.1572 58.1846 9.76172 58.8232 9.24609 59.3564C8.73047 59.8838 8.11523 60.291 7.40039 60.5781C6.69141 60.8594 5.89746 61 5.01855 61ZM3.50684 48.2031V61H1.30078V48.2031H3.50684ZM17.042 61.1758C16.3389 61.1758 15.7031 61.0615 15.1348 60.833C14.5723 60.5986 14.0918 60.2734 13.6934 59.8574C13.3008 59.4414 12.999 58.9521 12.7881 58.3896C12.5771 57.8271 12.4717 57.2207 12.4717 56.5703V56.2188C12.4717 55.4746 12.5801 54.8008 12.7969 54.1973C13.0137 53.5938 13.3154 53.0781 13.7021 52.6504C14.0889 52.2168 14.5459 51.8857 15.0732 51.6572C15.6006 51.4287 16.1719 51.3145 16.7871 51.3145C17.4668 51.3145 18.0615 51.4287 18.5713 51.6572C19.0811 51.8857 19.5029 52.208 19.8369 52.624C20.1768 53.0342 20.4287 53.5234 20.5928 54.0918C20.7627 54.6602 20.8477 55.2871 20.8477 55.9727V56.8779H13.5V55.3574H18.7559V55.1904C18.7441 54.8096 18.668 54.4521 18.5273 54.1182C18.3926 53.7842 18.1846 53.5146 17.9033 53.3096C17.6221 53.1045 17.2471 53.002 16.7783 53.002C16.4268 53.002 16.1133 53.0781 15.8379 53.2305C15.5684 53.377 15.3428 53.5908 15.1611 53.8721C14.9795 54.1533 14.8389 54.4932 14.7393 54.8916C14.6455 55.2842 14.5986 55.7266 14.5986 56.2188V56.5703C14.5986 56.9863 14.6543 57.373 14.7656 57.7305C14.8828 58.082 15.0527 58.3896 15.2754 58.6533C15.498 58.917 15.7676 59.125 16.084 59.2773C16.4004 59.4238 16.7607 59.4971 17.165 59.4971C17.6748 59.4971 18.1289 59.3945 18.5273 59.1895C18.9258 58.9844 19.2715 58.6943 19.5645 58.3193L20.6807 59.4004C20.4756 59.6992 20.209 59.9863 19.8809 60.2617C19.5527 60.5312 19.1514 60.751 18.6768 60.9209C18.208 61.0908 17.6631 61.1758 17.042 61.1758ZM15.5654 50.1455L17.2793 47.5H19.6699L17.2793 50.1455H15.5654ZM25.4707 59.3213L27.7998 51.4902H29.9971L26.6924 61H25.3213L25.4707 59.3213ZM23.6865 51.4902L26.0596 59.3564L26.1738 61H24.8027L21.4805 51.4902H23.6865ZM35.376 61.1758C34.6729 61.1758 34.0371 61.0615 33.4688 60.833C32.9062 60.5986 32.4258 60.2734 32.0273 59.8574C31.6348 59.4414 31.333 58.9521 31.1221 58.3896C30.9111 57.8271 30.8057 57.2207 30.8057 56.5703V56.2188C30.8057 55.4746 30.9141 54.8008 31.1309 54.1973C31.3477 53.5938 31.6494 53.0781 32.0361 52.6504C32.4229 52.2168 32.8799 51.8857 33.4072 51.6572C33.9346 51.4287 34.5059 51.3145 35.1211 51.3145C35.8008 51.3145 36.3955 51.4287 36.9053 51.6572C37.415 51.8857 37.8369 52.208 38.1709 52.624C38.5107 53.0342 38.7627 53.5234 38.9268 54.0918C39.0967 54.6602 39.1816 55.2871 39.1816 55.9727V56.8779H31.834V55.3574H37.0898V55.1904C37.0781 54.8096 37.002 54.4521 36.8613 54.1182C36.7266 53.7842 36.5186 53.5146 36.2373 53.3096C35.9561 53.1045 35.5811 53.002 35.1123 53.002C34.7607 53.002 34.4473 53.0781 34.1719 53.2305C33.9023 53.377 33.6768 53.5908 33.4951 53.8721C33.3135 54.1533 33.1729 54.4932 33.0732 54.8916C32.9795 55.2842 32.9326 55.7266 32.9326 56.2188V56.5703C32.9326 56.9863 32.9883 57.373 33.0996 57.7305C33.2168 58.082 33.3867 58.3896 33.6094 58.6533C33.832 58.917 34.1016 59.125 34.418 59.2773C34.7344 59.4238 35.0947 59.4971 35.499 59.4971C36.0088 59.4971 36.4629 59.3945 36.8613 59.1895C37.2598 58.9844 37.6055 58.6943 37.8984 58.3193L39.0146 59.4004C38.8096 59.6992 38.543 59.9863 38.2148 60.2617C37.8867 60.5312 37.4854 60.751 37.0107 60.9209C36.542 61.0908 35.9971 61.1758 35.376 61.1758ZM43.1016 47.5V61H40.9746V47.5H43.1016ZM45.0176 56.3506V56.1484C45.0176 55.4629 45.1172 54.8271 45.3164 54.2412C45.5156 53.6494 45.8027 53.1367 46.1777 52.7031C46.5586 52.2637 47.0215 51.9238 47.5664 51.6836C48.1172 51.4375 48.7383 51.3145 49.4297 51.3145C50.127 51.3145 50.748 51.4375 51.293 51.6836C51.8438 51.9238 52.3096 52.2637 52.6904 52.7031C53.0713 53.1367 53.3613 53.6494 53.5605 54.2412C53.7598 54.8271 53.8594 55.4629 53.8594 56.1484V56.3506C53.8594 57.0361 53.7598 57.6719 53.5605 58.2578C53.3613 58.8438 53.0713 59.3564 52.6904 59.7959C52.3096 60.2295 51.8467 60.5693 51.3018 60.8154C50.7568 61.0557 50.1387 61.1758 49.4473 61.1758C48.75 61.1758 48.126 61.0557 47.5752 60.8154C47.0303 60.5693 46.5674 60.2295 46.1865 59.7959C45.8057 59.3564 45.5156 58.8438 45.3164 58.2578C45.1172 57.6719 45.0176 57.0361 45.0176 56.3506ZM47.1357 56.1484V56.3506C47.1357 56.7783 47.1797 57.1826 47.2676 57.5635C47.3555 57.9443 47.4932 58.2783 47.6807 58.5654C47.8682 58.8525 48.1084 59.0781 48.4014 59.2422C48.6943 59.4062 49.043 59.4883 49.4473 59.4883C49.8398 59.4883 50.1797 59.4062 50.4668 59.2422C50.7598 59.0781 51 58.8525 51.1875 58.5654C51.375 58.2783 51.5127 57.9443 51.6006 57.5635C51.6943 57.1826 51.7412 56.7783 51.7412 56.3506V56.1484C51.7412 55.7266 51.6943 55.3281 51.6006 54.9531C51.5127 54.5723 51.3721 54.2354 51.1787 53.9424C50.9912 53.6494 50.751 53.4209 50.458 53.2568C50.1709 53.0869 49.8281 53.002 49.4297 53.002C49.0312 53.002 48.6855 53.0869 48.3926 53.2568C48.1055 53.4209 47.8682 53.6494 47.6807 53.9424C47.4932 54.2354 47.3555 54.5723 47.2676 54.9531C47.1797 55.3281 47.1357 55.7266 47.1357 56.1484ZM57.7617 53.3184V64.6562H55.6436V51.4902H57.5947L57.7617 53.3184ZM63.958 56.1572V56.3418C63.958 57.0332 63.876 57.6748 63.7119 58.2666C63.5537 58.8525 63.3164 59.3652 63 59.8047C62.6895 60.2383 62.3057 60.5752 61.8486 60.8154C61.3916 61.0557 60.8643 61.1758 60.2666 61.1758C59.6748 61.1758 59.1562 61.0674 58.7109 60.8506C58.2715 60.6279 57.8994 60.3145 57.5947 59.9102C57.29 59.5059 57.0439 59.0312 56.8564 58.4863C56.6748 57.9355 56.5459 57.332 56.4697 56.6758V55.9639C56.5459 55.2666 56.6748 54.6338 56.8564 54.0654C57.0439 53.4971 57.29 53.0078 57.5947 52.5977C57.8994 52.1875 58.2715 51.8711 58.7109 51.6484C59.1504 51.4258 59.6631 51.3145 60.249 51.3145C60.8467 51.3145 61.377 51.4316 61.8398 51.666C62.3027 51.8945 62.6924 52.2227 63.0088 52.6504C63.3252 53.0723 63.5625 53.582 63.7207 54.1797C63.8789 54.7715 63.958 55.4307 63.958 56.1572ZM61.8398 56.3418V56.1572C61.8398 55.7178 61.7988 55.3105 61.7168 54.9355C61.6348 54.5547 61.5059 54.2207 61.3301 53.9336C61.1543 53.6465 60.9287 53.4238 60.6533 53.2656C60.3838 53.1016 60.0586 53.0195 59.6777 53.0195C59.3027 53.0195 58.9805 53.084 58.7109 53.2129C58.4414 53.3359 58.2158 53.5088 58.0342 53.7314C57.8525 53.9541 57.7119 54.2148 57.6123 54.5137C57.5127 54.8066 57.4424 55.126 57.4014 55.4717V57.1768C57.4717 57.5986 57.5918 57.9854 57.7617 58.3369C57.9316 58.6885 58.1719 58.9697 58.4824 59.1807C58.7988 59.3857 59.2031 59.4883 59.6953 59.4883C60.0762 59.4883 60.4014 59.4062 60.6709 59.2422C60.9404 59.0781 61.1602 58.8525 61.3301 58.5654C61.5059 58.2725 61.6348 57.9355 61.7168 57.5547C61.7988 57.1738 61.8398 56.7695 61.8398 56.3418ZM67.8867 53.3184V64.6562H65.7686V51.4902H67.7197L67.8867 53.3184ZM74.083 56.1572V56.3418C74.083 57.0332 74.001 57.6748 73.8369 58.2666C73.6787 58.8525 73.4414 59.3652 73.125 59.8047C72.8145 60.2383 72.4307 60.5752 71.9736 60.8154C71.5166 61.0557 70.9893 61.1758 70.3916 61.1758C69.7998 61.1758 69.2812 61.0674 68.8359 60.8506C68.3965 60.6279 68.0244 60.3145 67.7197 59.9102C67.415 59.5059 67.1689 59.0312 66.9814 58.4863C66.7998 57.9355 66.6709 57.332 66.5947 56.6758V55.9639C66.6709 55.2666 66.7998 54.6338 66.9814 54.0654C67.1689 53.4971 67.415 53.0078 67.7197 52.5977C68.0244 52.1875 68.3965 51.8711 68.8359 51.6484C69.2754 51.4258 69.7881 51.3145 70.374 51.3145C70.9717 51.3145 71.502 51.4316 71.9648 51.666C72.4277 51.8945 72.8174 52.2227 73.1338 52.6504C73.4502 53.0723 73.6875 53.582 73.8457 54.1797C74.0039 54.7715 74.083 55.4307 74.083 56.1572ZM71.9648 56.3418V56.1572C71.9648 55.7178 71.9238 55.3105 71.8418 54.9355C71.7598 54.5547 71.6309 54.2207 71.4551 53.9336C71.2793 53.6465 71.0537 53.4238 70.7783 53.2656C70.5088 53.1016 70.1836 53.0195 69.8027 53.0195C69.4277 53.0195 69.1055 53.084 68.8359 53.2129C68.5664 53.3359 68.3408 53.5088 68.1592 53.7314C67.9775 53.9541 67.8369 54.2148 67.7373 54.5137C67.6377 54.8066 67.5674 55.126 67.5264 55.4717V57.1768C67.5967 57.5986 67.7168 57.9854 67.8867 58.3369C68.0566 58.6885 68.2969 58.9697 68.6074 59.1807C68.9238 59.3857 69.3281 59.4883 69.8203 59.4883C70.2012 59.4883 70.5264 59.4062 70.7959 59.2422C71.0654 59.0781 71.2852 58.8525 71.4551 58.5654C71.6309 58.2725 71.7598 57.9355 71.8418 57.5547C71.9238 57.1738 71.9648 56.7695 71.9648 56.3418ZM80.0771 61.1758C79.374 61.1758 78.7383 61.0615 78.1699 60.833C77.6074 60.5986 77.127 60.2734 76.7285 59.8574C76.3359 59.4414 76.0342 58.9521 75.8232 58.3896C75.6123 57.8271 75.5068 57.2207 75.5068 56.5703V56.2188C75.5068 55.4746 75.6152 54.8008 75.832 54.1973C76.0488 53.5938 76.3506 53.0781 76.7373 52.6504C77.124 52.2168 77.5811 51.8857 78.1084 51.6572C78.6357 51.4287 79.207 51.3145 79.8223 51.3145C80.502 51.3145 81.0967 51.4287 81.6064 51.6572C82.1162 51.8857 82.5381 52.208 82.8721 52.624C83.2119 53.0342 83.4639 53.5234 83.6279 54.0918C83.7979 54.6602 83.8828 55.2871 83.8828 55.9727V56.8779H76.5352V55.3574H81.791V55.1904C81.7793 54.8096 81.7031 54.4521 81.5625 54.1182C81.4277 53.7842 81.2197 53.5146 80.9385 53.3096C80.6572 53.1045 80.2822 53.002 79.8135 53.002C79.4619 53.002 79.1484 53.0781 78.873 53.2305C78.6035 53.377 78.3779 53.5908 78.1963 53.8721C78.0146 54.1533 77.874 54.4932 77.7744 54.8916C77.6807 55.2842 77.6338 55.7266 77.6338 56.2188V56.5703C77.6338 56.9863 77.6895 57.373 77.8008 57.7305C77.918 58.082 78.0879 58.3896 78.3105 58.6533C78.5332 58.917 78.8027 59.125 79.1191 59.2773C79.4355 59.4238 79.7959 59.4971 80.2002 59.4971C80.71 59.4971 81.1641 59.3945 81.5625 59.1895C81.9609 58.9844 82.3066 58.6943 82.5996 58.3193L83.7158 59.4004C83.5107 59.6992 83.2441 59.9863 82.916 60.2617C82.5879 60.5312 82.1865 60.751 81.7119 60.9209C81.2432 61.0908 80.6982 61.1758 80.0771 61.1758ZM87.6533 53.4238V61H85.5352V51.4902H87.5303L87.6533 53.4238ZM87.3105 55.8936L86.5898 55.8848C86.5898 55.2285 86.6719 54.6221 86.8359 54.0654C87 53.5088 87.2402 53.0254 87.5566 52.6152C87.873 52.1992 88.2656 51.8799 88.7344 51.6572C89.209 51.4287 89.7568 51.3145 90.3779 51.3145C90.8115 51.3145 91.207 51.3789 91.5645 51.5078C91.9277 51.6309 92.2412 51.8271 92.5049 52.0967C92.7744 52.3662 92.9795 52.7119 93.1201 53.1338C93.2666 53.5557 93.3398 54.0654 93.3398 54.6631V61H91.2217V54.8477C91.2217 54.3848 91.1514 54.0215 91.0107 53.7578C90.876 53.4941 90.6797 53.3066 90.4219 53.1953C90.1699 53.0781 89.8682 53.0195 89.5166 53.0195C89.1182 53.0195 88.7783 53.0957 88.4971 53.248C88.2217 53.4004 87.9961 53.6084 87.8203 53.8721C87.6445 54.1357 87.5156 54.4404 87.4336 54.7861C87.3516 55.1318 87.3105 55.501 87.3105 55.8936ZM93.208 55.3311L92.2148 55.5508C92.2148 54.9766 92.2939 54.4346 92.4521 53.9248C92.6162 53.4092 92.8535 52.958 93.1641 52.5713C93.4805 52.1787 93.8701 51.8711 94.333 51.6484C94.7959 51.4258 95.3262 51.3145 95.9238 51.3145C96.4102 51.3145 96.8438 51.3818 97.2246 51.5166C97.6113 51.6455 97.9395 51.8506 98.209 52.1318C98.4785 52.4131 98.6836 52.7793 98.8242 53.2305C98.9648 53.6758 99.0352 54.2148 99.0352 54.8477V61H96.9082V54.8389C96.9082 54.3584 96.8379 53.9863 96.6973 53.7227C96.5625 53.459 96.3691 53.2773 96.1172 53.1777C95.8652 53.0723 95.5635 53.0195 95.2119 53.0195C94.8838 53.0195 94.5938 53.0811 94.3418 53.2041C94.0957 53.3213 93.8877 53.4883 93.7178 53.7051C93.5479 53.916 93.4189 54.1592 93.3311 54.4346C93.249 54.71 93.208 55.0088 93.208 55.3311ZM105.407 61.1758C104.704 61.1758 104.068 61.0615 103.5 60.833C102.938 60.5986 102.457 60.2734 102.059 59.8574C101.666 59.4414 101.364 58.9521 101.153 58.3896C100.942 57.8271 100.837 57.2207 100.837 56.5703V56.2188C100.837 55.4746 100.945 54.8008 101.162 54.1973C101.379 53.5938 101.681 53.0781 102.067 52.6504C102.454 52.2168 102.911 51.8857 103.438 51.6572C103.966 51.4287 104.537 51.3145 105.152 51.3145C105.832 51.3145 106.427 51.4287 106.937 51.6572C107.446 51.8857 107.868 52.208 108.202 52.624C108.542 53.0342 108.794 53.5234 108.958 54.0918C109.128 54.6602 109.213 55.2871 109.213 55.9727V56.8779H101.865V55.3574H107.121V55.1904C107.109 54.8096 107.033 54.4521 106.893 54.1182C106.758 53.7842 106.55 53.5146 106.269 53.3096C105.987 53.1045 105.612 53.002 105.144 53.002C104.792 53.002 104.479 53.0781 104.203 53.2305C103.934 53.377 103.708 53.5908 103.526 53.8721C103.345 54.1533 103.204 54.4932 103.104 54.8916C103.011 55.2842 102.964 55.7266 102.964 56.2188V56.5703C102.964 56.9863 103.02 57.373 103.131 57.7305C103.248 58.082 103.418 58.3896 103.641 58.6533C103.863 58.917 104.133 59.125 104.449 59.2773C104.766 59.4238 105.126 59.4971 105.53 59.4971C106.04 59.4971 106.494 59.3945 106.893 59.1895C107.291 58.9844 107.637 58.6943 107.93 58.3193L109.046 59.4004C108.841 59.6992 108.574 59.9863 108.246 60.2617C107.918 60.5312 107.517 60.751 107.042 60.9209C106.573 61.0908 106.028 61.1758 105.407 61.1758ZM112.966 53.5205V61H110.848V51.4902H112.843L112.966 53.5205ZM112.588 55.8936L111.902 55.8848C111.908 55.2109 112.002 54.5928 112.184 54.0303C112.371 53.4678 112.629 52.9844 112.957 52.5801C113.291 52.1758 113.689 51.8652 114.152 51.6484C114.615 51.4258 115.131 51.3145 115.699 51.3145C116.156 51.3145 116.569 51.3789 116.938 51.5078C117.313 51.6309 117.633 51.833 117.896 52.1143C118.166 52.3955 118.371 52.7617 118.512 53.2129C118.652 53.6582 118.723 54.2061 118.723 54.8564V61H116.596V54.8477C116.596 54.3906 116.528 54.0303 116.394 53.7666C116.265 53.4971 116.074 53.3066 115.822 53.1953C115.576 53.0781 115.269 53.0195 114.899 53.0195C114.536 53.0195 114.211 53.0957 113.924 53.248C113.637 53.4004 113.394 53.6084 113.194 53.8721C113.001 54.1357 112.852 54.4404 112.746 54.7861C112.641 55.1318 112.588 55.501 112.588 55.8936ZM125.244 51.4902V53.0371H119.883V51.4902H125.244ZM121.43 49.1611H123.548V58.3721C123.548 58.665 123.589 58.8906 123.671 59.0488C123.759 59.2012 123.879 59.3037 124.031 59.3564C124.184 59.4092 124.362 59.4355 124.567 59.4355C124.714 59.4355 124.854 59.4268 124.989 59.4092C125.124 59.3916 125.232 59.374 125.314 59.3564L125.323 60.9736C125.147 61.0264 124.942 61.0732 124.708 61.1143C124.479 61.1553 124.216 61.1758 123.917 61.1758C123.431 61.1758 123 61.0908 122.625 60.9209C122.25 60.7451 121.957 60.4609 121.746 60.0684C121.535 59.6758 121.43 59.1543 121.43 58.5039V49.1611ZM133.945 58.8906L136.143 51.4902H137.496L137.127 53.7051L134.912 61H133.699L133.945 58.8906ZM132.653 51.4902L134.367 58.9258L134.508 61H133.154L130.579 51.4902H132.653ZM139.553 58.8379L141.214 51.4902H143.279L140.713 61H139.359L139.553 58.8379ZM137.725 51.4902L139.896 58.8027L140.168 61H138.955L136.714 53.6963L136.345 51.4902H137.725ZM148.913 61.1758C148.21 61.1758 147.574 61.0615 147.006 60.833C146.443 60.5986 145.963 60.2734 145.564 59.8574C145.172 59.4414 144.87 58.9521 144.659 58.3896C144.448 57.8271 144.343 57.2207 144.343 56.5703V56.2188C144.343 55.4746 144.451 54.8008 144.668 54.1973C144.885 53.5938 145.187 53.0781 145.573 52.6504C145.96 52.2168 146.417 51.8857 146.944 51.6572C147.472 51.4287 148.043 51.3145 148.658 51.3145C149.338 51.3145 149.933 51.4287 150.442 51.6572C150.952 51.8857 151.374 52.208 151.708 52.624C152.048 53.0342 152.3 53.5234 152.464 54.0918C152.634 54.6602 152.719 55.2871 152.719 55.9727V56.8779H145.371V55.3574H150.627V55.1904C150.615 54.8096 150.539 54.4521 150.398 54.1182C150.264 53.7842 150.056 53.5146 149.774 53.3096C149.493 53.1045 149.118 53.002 148.649 53.002C148.298 53.002 147.984 53.0781 147.709 53.2305C147.439 53.377 147.214 53.5908 147.032 53.8721C146.851 54.1533 146.71 54.4932 146.61 54.8916C146.517 55.2842 146.47 55.7266 146.47 56.2188V56.5703C146.47 56.9863 146.525 57.373 146.637 57.7305C146.754 58.082 146.924 58.3896 147.146 58.6533C147.369 58.917 147.639 59.125 147.955 59.2773C148.271 59.4238 148.632 59.4971 149.036 59.4971C149.546 59.4971 150 59.3945 150.398 59.1895C150.797 58.9844 151.143 58.6943 151.436 58.3193L152.552 59.4004C152.347 59.6992 152.08 59.9863 151.752 60.2617C151.424 60.5312 151.022 60.751 150.548 60.9209C150.079 61.0908 149.534 61.1758 148.913 61.1758ZM154.38 47.5H156.498V58.9697L156.296 61H154.38V47.5ZM162.703 56.1572V56.3418C162.703 57.0449 162.624 57.6924 162.466 58.2842C162.313 58.8701 162.079 59.3799 161.763 59.8135C161.452 60.2471 161.065 60.584 160.603 60.8242C160.146 61.0586 159.615 61.1758 159.012 61.1758C158.42 61.1758 157.904 61.0645 157.465 60.8418C157.025 60.6191 156.656 60.3027 156.357 59.8926C156.064 59.4824 155.827 58.9932 155.646 58.4248C155.464 57.8564 155.335 57.2295 155.259 56.5439V55.9551C155.335 55.2637 155.464 54.6367 155.646 54.0742C155.827 53.5059 156.064 53.0166 156.357 52.6064C156.656 52.1904 157.022 51.8711 157.456 51.6484C157.896 51.4258 158.408 51.3145 158.994 51.3145C159.604 51.3145 160.14 51.4316 160.603 51.666C161.071 51.9004 161.461 52.2344 161.771 52.668C162.082 53.0957 162.313 53.6055 162.466 54.1973C162.624 54.7891 162.703 55.4424 162.703 56.1572ZM160.585 56.3418V56.1572C160.585 55.7295 160.55 55.3281 160.479 54.9531C160.409 54.5723 160.292 54.2383 160.128 53.9512C159.97 53.6641 159.753 53.4385 159.478 53.2744C159.208 53.1045 158.871 53.0195 158.467 53.0195C158.092 53.0195 157.77 53.084 157.5 53.2129C157.23 53.3418 157.005 53.5176 156.823 53.7402C156.642 53.9629 156.498 54.2207 156.393 54.5137C156.293 54.8066 156.226 55.123 156.19 55.4629V57.0537C156.243 57.4932 156.354 57.8975 156.524 58.2666C156.7 58.6299 156.946 58.9229 157.263 59.1455C157.579 59.3623 157.986 59.4707 158.484 59.4707C158.877 59.4707 159.208 59.3916 159.478 59.2334C159.747 59.0752 159.961 58.8555 160.119 58.5742C160.283 58.2871 160.4 57.9531 160.471 57.5723C160.547 57.1914 160.585 56.7812 160.585 56.3418Z" fill="#06297A"/>
<path d="M377.859 230.834H380.057C379.986 231.672 379.752 232.419 379.354 233.075C378.955 233.726 378.396 234.238 377.675 234.613C376.954 234.988 376.078 235.176 375.047 235.176C374.256 235.176 373.544 235.035 372.911 234.754C372.278 234.467 371.736 234.062 371.285 233.541C370.834 233.014 370.488 232.378 370.248 231.634C370.014 230.89 369.896 230.058 369.896 229.138V228.074C369.896 227.154 370.017 226.322 370.257 225.578C370.503 224.834 370.854 224.198 371.312 223.671C371.769 223.138 372.316 222.73 372.955 222.449C373.6 222.168 374.323 222.027 375.126 222.027C376.146 222.027 377.007 222.215 377.71 222.59C378.413 222.965 378.958 223.483 379.345 224.146C379.737 224.808 379.978 225.566 380.065 226.422H377.868C377.81 225.871 377.681 225.399 377.481 225.007C377.288 224.614 377.001 224.315 376.62 224.11C376.239 223.899 375.741 223.794 375.126 223.794C374.622 223.794 374.183 223.888 373.808 224.075C373.433 224.263 373.119 224.538 372.867 224.901C372.615 225.265 372.425 225.713 372.296 226.246C372.173 226.773 372.111 227.377 372.111 228.057V229.138C372.111 229.782 372.167 230.368 372.278 230.896C372.396 231.417 372.571 231.865 372.806 232.24C373.046 232.615 373.351 232.905 373.72 233.11C374.089 233.315 374.531 233.418 375.047 233.418C375.674 233.418 376.181 233.318 376.567 233.119C376.96 232.92 377.256 232.63 377.455 232.249C377.66 231.862 377.795 231.391 377.859 230.834ZM381.445 230.351V230.148C381.445 229.463 381.545 228.827 381.744 228.241C381.943 227.649 382.23 227.137 382.605 226.703C382.986 226.264 383.449 225.924 383.994 225.684C384.545 225.438 385.166 225.314 385.857 225.314C386.555 225.314 387.176 225.438 387.721 225.684C388.271 225.924 388.737 226.264 389.118 226.703C389.499 227.137 389.789 227.649 389.988 228.241C390.188 228.827 390.287 229.463 390.287 230.148V230.351C390.287 231.036 390.188 231.672 389.988 232.258C389.789 232.844 389.499 233.356 389.118 233.796C388.737 234.229 388.274 234.569 387.729 234.815C387.185 235.056 386.566 235.176 385.875 235.176C385.178 235.176 384.554 235.056 384.003 234.815C383.458 234.569 382.995 234.229 382.614 233.796C382.233 233.356 381.943 232.844 381.744 232.258C381.545 231.672 381.445 231.036 381.445 230.351ZM383.563 230.148V230.351C383.563 230.778 383.607 231.183 383.695 231.563C383.783 231.944 383.921 232.278 384.108 232.565C384.296 232.853 384.536 233.078 384.829 233.242C385.122 233.406 385.471 233.488 385.875 233.488C386.268 233.488 386.607 233.406 386.895 233.242C387.188 233.078 387.428 232.853 387.615 232.565C387.803 232.278 387.94 231.944 388.028 231.563C388.122 231.183 388.169 230.778 388.169 230.351V230.148C388.169 229.727 388.122 229.328 388.028 228.953C387.94 228.572 387.8 228.235 387.606 227.942C387.419 227.649 387.179 227.421 386.886 227.257C386.599 227.087 386.256 227.002 385.857 227.002C385.459 227.002 385.113 227.087 384.82 227.257C384.533 227.421 384.296 227.649 384.108 227.942C383.921 228.235 383.783 228.572 383.695 228.953C383.607 229.328 383.563 229.727 383.563 230.148ZM394.181 227.424V235H392.062V225.49H394.058L394.181 227.424ZM393.838 229.894L393.117 229.885C393.117 229.229 393.199 228.622 393.363 228.065C393.527 227.509 393.768 227.025 394.084 226.615C394.4 226.199 394.793 225.88 395.262 225.657C395.736 225.429 396.284 225.314 396.905 225.314C397.339 225.314 397.734 225.379 398.092 225.508C398.455 225.631 398.769 225.827 399.032 226.097C399.302 226.366 399.507 226.712 399.647 227.134C399.794 227.556 399.867 228.065 399.867 228.663V235H397.749V228.848C397.749 228.385 397.679 228.021 397.538 227.758C397.403 227.494 397.207 227.307 396.949 227.195C396.697 227.078 396.396 227.02 396.044 227.02C395.646 227.02 395.306 227.096 395.024 227.248C394.749 227.4 394.523 227.608 394.348 227.872C394.172 228.136 394.043 228.44 393.961 228.786C393.879 229.132 393.838 229.501 393.838 229.894ZM399.735 229.331L398.742 229.551C398.742 228.977 398.821 228.435 398.979 227.925C399.144 227.409 399.381 226.958 399.691 226.571C400.008 226.179 400.397 225.871 400.86 225.648C401.323 225.426 401.854 225.314 402.451 225.314C402.938 225.314 403.371 225.382 403.752 225.517C404.139 225.646 404.467 225.851 404.736 226.132C405.006 226.413 405.211 226.779 405.352 227.23C405.492 227.676 405.562 228.215 405.562 228.848V235H403.436V228.839C403.436 228.358 403.365 227.986 403.225 227.723C403.09 227.459 402.896 227.277 402.645 227.178C402.393 227.072 402.091 227.02 401.739 227.02C401.411 227.02 401.121 227.081 400.869 227.204C400.623 227.321 400.415 227.488 400.245 227.705C400.075 227.916 399.946 228.159 399.858 228.435C399.776 228.71 399.735 229.009 399.735 229.331ZM409.86 227.424V235H407.742V225.49H409.737L409.86 227.424ZM409.518 229.894L408.797 229.885C408.797 229.229 408.879 228.622 409.043 228.065C409.207 227.509 409.447 227.025 409.764 226.615C410.08 226.199 410.473 225.88 410.941 225.657C411.416 225.429 411.964 225.314 412.585 225.314C413.019 225.314 413.414 225.379 413.771 225.508C414.135 225.631 414.448 225.827 414.712 226.097C414.981 226.366 415.187 226.712 415.327 227.134C415.474 227.556 415.547 228.065 415.547 228.663V235H413.429V228.848C413.429 228.385 413.358 228.021 413.218 227.758C413.083 227.494 412.887 227.307 412.629 227.195C412.377 227.078 412.075 227.02 411.724 227.02C411.325 227.02 410.985 227.096 410.704 227.248C410.429 227.4 410.203 227.608 410.027 227.872C409.852 228.136 409.723 228.44 409.641 228.786C409.559 229.132 409.518 229.501 409.518 229.894ZM415.415 229.331L414.422 229.551C414.422 228.977 414.501 228.435 414.659 227.925C414.823 227.409 415.061 226.958 415.371 226.571C415.688 226.179 416.077 225.871 416.54 225.648C417.003 225.426 417.533 225.314 418.131 225.314C418.617 225.314 419.051 225.382 419.432 225.517C419.818 225.646 420.146 225.851 420.416 226.132C420.686 226.413 420.891 226.779 421.031 227.23C421.172 227.676 421.242 228.215 421.242 228.848V235H419.115V228.839C419.115 228.358 419.045 227.986 418.904 227.723C418.77 227.459 418.576 227.277 418.324 227.178C418.072 227.072 417.771 227.02 417.419 227.02C417.091 227.02 416.801 227.081 416.549 227.204C416.303 227.321 416.095 227.488 415.925 227.705C415.755 227.916 415.626 228.159 415.538 228.435C415.456 228.71 415.415 229.009 415.415 229.331ZM429.144 232.759V225.49H431.271V235H429.267L429.144 232.759ZM429.442 230.781L430.154 230.764C430.154 231.402 430.084 231.991 429.943 232.53C429.803 233.063 429.586 233.529 429.293 233.928C429 234.32 428.625 234.628 428.168 234.851C427.711 235.067 427.163 235.176 426.524 235.176C426.062 235.176 425.637 235.108 425.25 234.974C424.863 234.839 424.529 234.631 424.248 234.35C423.973 234.068 423.759 233.702 423.606 233.251C423.454 232.8 423.378 232.261 423.378 231.634V225.49H425.496V231.651C425.496 231.997 425.537 232.287 425.619 232.521C425.701 232.75 425.812 232.935 425.953 233.075C426.094 233.216 426.258 233.315 426.445 233.374C426.633 233.433 426.832 233.462 427.043 233.462C427.646 233.462 428.121 233.345 428.467 233.11C428.818 232.87 429.067 232.548 429.214 232.144C429.366 231.739 429.442 231.285 429.442 230.781ZM435.542 227.521V235H433.424V225.49H435.419L435.542 227.521ZM435.164 229.894L434.479 229.885C434.484 229.211 434.578 228.593 434.76 228.03C434.947 227.468 435.205 226.984 435.533 226.58C435.867 226.176 436.266 225.865 436.729 225.648C437.191 225.426 437.707 225.314 438.275 225.314C438.732 225.314 439.146 225.379 439.515 225.508C439.89 225.631 440.209 225.833 440.473 226.114C440.742 226.396 440.947 226.762 441.088 227.213C441.229 227.658 441.299 228.206 441.299 228.856V235H439.172V228.848C439.172 228.391 439.104 228.03 438.97 227.767C438.841 227.497 438.65 227.307 438.398 227.195C438.152 227.078 437.845 227.02 437.476 227.02C437.112 227.02 436.787 227.096 436.5 227.248C436.213 227.4 435.97 227.608 435.771 227.872C435.577 228.136 435.428 228.44 435.322 228.786C435.217 229.132 435.164 229.501 435.164 229.894ZM445.729 225.49V235H443.602V225.49H445.729ZM443.461 222.994C443.461 222.672 443.566 222.405 443.777 222.194C443.994 221.978 444.293 221.869 444.674 221.869C445.049 221.869 445.345 221.978 445.562 222.194C445.778 222.405 445.887 222.672 445.887 222.994C445.887 223.311 445.778 223.574 445.562 223.785C445.345 223.996 445.049 224.102 444.674 224.102C444.293 224.102 443.994 223.996 443.777 223.785C443.566 223.574 443.461 223.311 443.461 222.994ZM451.934 233.488C452.279 233.488 452.59 233.421 452.865 233.286C453.146 233.146 453.372 232.952 453.542 232.706C453.718 232.46 453.814 232.176 453.832 231.854H455.827C455.815 232.469 455.634 233.028 455.282 233.532C454.931 234.036 454.465 234.438 453.885 234.736C453.305 235.029 452.663 235.176 451.96 235.176C451.233 235.176 450.601 235.053 450.062 234.807C449.522 234.555 449.074 234.209 448.717 233.77C448.359 233.33 448.09 232.823 447.908 232.249C447.732 231.675 447.645 231.06 447.645 230.403V230.096C447.645 229.439 447.732 228.824 447.908 228.25C448.09 227.67 448.359 227.16 448.717 226.721C449.074 226.281 449.522 225.938 450.062 225.692C450.601 225.44 451.23 225.314 451.951 225.314C452.713 225.314 453.381 225.467 453.955 225.771C454.529 226.07 454.98 226.489 455.309 227.028C455.643 227.562 455.815 228.183 455.827 228.892H453.832C453.814 228.54 453.727 228.224 453.568 227.942C453.416 227.655 453.199 227.427 452.918 227.257C452.643 227.087 452.312 227.002 451.925 227.002C451.497 227.002 451.143 227.09 450.861 227.266C450.58 227.436 450.36 227.67 450.202 227.969C450.044 228.262 449.93 228.593 449.859 228.962C449.795 229.325 449.763 229.703 449.763 230.096V230.403C449.763 230.796 449.795 231.177 449.859 231.546C449.924 231.915 450.035 232.246 450.193 232.539C450.357 232.826 450.58 233.058 450.861 233.233C451.143 233.403 451.5 233.488 451.934 233.488ZM462.814 233.093V228.558C462.814 228.218 462.753 227.925 462.63 227.679C462.507 227.433 462.319 227.242 462.067 227.107C461.821 226.973 461.511 226.905 461.136 226.905C460.79 226.905 460.491 226.964 460.239 227.081C459.987 227.198 459.791 227.356 459.65 227.556C459.51 227.755 459.439 227.98 459.439 228.232H457.33C457.33 227.857 457.421 227.494 457.603 227.143C457.784 226.791 458.048 226.478 458.394 226.202C458.739 225.927 459.152 225.71 459.633 225.552C460.113 225.394 460.652 225.314 461.25 225.314C461.965 225.314 462.598 225.435 463.148 225.675C463.705 225.915 464.142 226.278 464.458 226.765C464.78 227.245 464.941 227.849 464.941 228.575V232.803C464.941 233.236 464.971 233.626 465.029 233.972C465.094 234.312 465.185 234.607 465.302 234.859V235H463.131C463.031 234.771 462.952 234.481 462.894 234.13C462.841 233.772 462.814 233.427 462.814 233.093ZM463.122 229.217L463.14 230.526H461.619C461.227 230.526 460.881 230.564 460.582 230.641C460.283 230.711 460.034 230.816 459.835 230.957C459.636 231.098 459.486 231.268 459.387 231.467C459.287 231.666 459.237 231.892 459.237 232.144C459.237 232.396 459.296 232.627 459.413 232.838C459.53 233.043 459.7 233.204 459.923 233.321C460.151 233.438 460.427 233.497 460.749 233.497C461.183 233.497 461.561 233.409 461.883 233.233C462.211 233.052 462.469 232.832 462.656 232.574C462.844 232.311 462.943 232.062 462.955 231.827L463.641 232.768C463.57 233.008 463.45 233.266 463.28 233.541C463.11 233.816 462.888 234.08 462.612 234.332C462.343 234.578 462.018 234.78 461.637 234.938C461.262 235.097 460.828 235.176 460.336 235.176C459.715 235.176 459.161 235.053 458.675 234.807C458.188 234.555 457.808 234.218 457.532 233.796C457.257 233.368 457.119 232.885 457.119 232.346C457.119 231.842 457.213 231.396 457.4 231.01C457.594 230.617 457.875 230.289 458.244 230.025C458.619 229.762 459.076 229.562 459.615 229.428C460.154 229.287 460.77 229.217 461.461 229.217H463.122ZM471.516 225.49V227.037H466.154V225.49H471.516ZM467.701 223.161H469.819V232.372C469.819 232.665 469.86 232.891 469.942 233.049C470.03 233.201 470.15 233.304 470.303 233.356C470.455 233.409 470.634 233.436 470.839 233.436C470.985 233.436 471.126 233.427 471.261 233.409C471.396 233.392 471.504 233.374 471.586 233.356L471.595 234.974C471.419 235.026 471.214 235.073 470.979 235.114C470.751 235.155 470.487 235.176 470.188 235.176C469.702 235.176 469.271 235.091 468.896 234.921C468.521 234.745 468.229 234.461 468.018 234.068C467.807 233.676 467.701 233.154 467.701 232.504V223.161ZM475.418 225.49V235H473.291V225.49H475.418ZM473.15 222.994C473.15 222.672 473.256 222.405 473.467 222.194C473.684 221.978 473.982 221.869 474.363 221.869C474.738 221.869 475.034 221.978 475.251 222.194C475.468 222.405 475.576 222.672 475.576 222.994C475.576 223.311 475.468 223.574 475.251 223.785C475.034 223.996 474.738 224.102 474.363 224.102C473.982 224.102 473.684 223.996 473.467 223.785C473.256 223.574 473.15 223.311 473.15 222.994ZM477.334 230.351V230.148C477.334 229.463 477.434 228.827 477.633 228.241C477.832 227.649 478.119 227.137 478.494 226.703C478.875 226.264 479.338 225.924 479.883 225.684C480.434 225.438 481.055 225.314 481.746 225.314C482.443 225.314 483.064 225.438 483.609 225.684C484.16 225.924 484.626 226.264 485.007 226.703C485.388 227.137 485.678 227.649 485.877 228.241C486.076 228.827 486.176 229.463 486.176 230.148V230.351C486.176 231.036 486.076 231.672 485.877 232.258C485.678 232.844 485.388 233.356 485.007 233.796C484.626 234.229 484.163 234.569 483.618 234.815C483.073 235.056 482.455 235.176 481.764 235.176C481.066 235.176 480.442 235.056 479.892 234.815C479.347 234.569 478.884 234.229 478.503 233.796C478.122 233.356 477.832 232.844 477.633 232.258C477.434 231.672 477.334 231.036 477.334 230.351ZM479.452 230.148V230.351C479.452 230.778 479.496 231.183 479.584 231.563C479.672 231.944 479.81 232.278 479.997 232.565C480.185 232.853 480.425 233.078 480.718 233.242C481.011 233.406 481.359 233.488 481.764 233.488C482.156 233.488 482.496 233.406 482.783 233.242C483.076 233.078 483.316 232.853 483.504 232.565C483.691 232.278 483.829 231.944 483.917 231.563C484.011 231.183 484.058 230.778 484.058 230.351V230.148C484.058 229.727 484.011 229.328 483.917 228.953C483.829 228.572 483.688 228.235 483.495 227.942C483.308 227.649 483.067 227.421 482.774 227.257C482.487 227.087 482.145 227.002 481.746 227.002C481.348 227.002 481.002 227.087 480.709 227.257C480.422 227.421 480.185 227.649 479.997 227.942C479.81 228.235 479.672 228.572 479.584 228.953C479.496 229.328 479.452 229.727 479.452 230.148ZM490.052 227.521V235H487.934V225.49H489.929L490.052 227.521ZM489.674 229.894L488.988 229.885C488.994 229.211 489.088 228.593 489.27 228.03C489.457 227.468 489.715 226.984 490.043 226.58C490.377 226.176 490.775 225.865 491.238 225.648C491.701 225.426 492.217 225.314 492.785 225.314C493.242 225.314 493.655 225.379 494.024 225.508C494.399 225.631 494.719 225.833 494.982 226.114C495.252 226.396 495.457 226.762 495.598 227.213C495.738 227.658 495.809 228.206 495.809 228.856V235H493.682V228.848C493.682 228.391 493.614 228.03 493.479 227.767C493.351 227.497 493.16 227.307 492.908 227.195C492.662 227.078 492.354 227.02 491.985 227.02C491.622 227.02 491.297 227.096 491.01 227.248C490.723 227.4 490.479 227.608 490.28 227.872C490.087 228.136 489.938 228.44 489.832 228.786C489.727 229.132 489.674 229.501 489.674 229.894Z" fill="#06297A"/>
<path d="M35.127 214.461V219.348C34.9453 219.588 34.6611 219.852 34.2744 220.139C33.8936 220.42 33.3867 220.663 32.7539 220.868C32.1211 221.073 31.333 221.176 30.3896 221.176C29.5869 221.176 28.8516 221.041 28.1836 220.771C27.5156 220.496 26.9385 220.095 26.4521 219.567C25.9717 219.04 25.5996 218.398 25.3359 217.643C25.0723 216.881 24.9404 216.014 24.9404 215.041V214.153C24.9404 213.187 25.0605 212.325 25.3008 211.569C25.5469 210.808 25.8984 210.163 26.3555 209.636C26.8125 209.108 27.3633 208.71 28.0078 208.44C28.6582 208.165 29.3936 208.027 30.2139 208.027C31.2627 208.027 32.1299 208.203 32.8154 208.555C33.5068 208.9 34.04 209.381 34.415 209.996C34.79 210.611 35.0273 211.314 35.127 212.105H32.9648C32.8945 211.66 32.7568 211.262 32.5518 210.91C32.3525 210.559 32.0654 210.283 31.6904 210.084C31.3213 209.879 30.8408 209.776 30.249 209.776C29.7393 209.776 29.291 209.873 28.9043 210.066C28.5176 210.26 28.1953 210.544 27.9375 210.919C27.6855 211.294 27.4951 211.751 27.3662 212.29C27.2373 212.829 27.1729 213.444 27.1729 214.136V215.041C27.1729 215.744 27.2461 216.368 27.3926 216.913C27.5449 217.458 27.7617 217.918 28.043 218.293C28.3301 218.668 28.6787 218.952 29.0889 219.146C29.499 219.333 29.9619 219.427 30.4775 219.427C30.9814 219.427 31.3945 219.386 31.7168 219.304C32.0391 219.216 32.2939 219.113 32.4814 218.996C32.6748 218.873 32.8242 218.756 32.9297 218.645V216.104H30.2666V214.461H35.127ZM39.4863 213.301V221H37.3682V211.49H39.3896L39.4863 213.301ZM42.3955 211.429L42.3779 213.397C42.249 213.374 42.1084 213.356 41.9561 213.345C41.8096 213.333 41.6631 213.327 41.5166 213.327C41.1533 213.327 40.834 213.38 40.5586 213.485C40.2832 213.585 40.0518 213.731 39.8643 213.925C39.6826 214.112 39.542 214.341 39.4424 214.61C39.3428 214.88 39.2842 215.182 39.2666 215.516L38.7832 215.551C38.7832 214.953 38.8418 214.399 38.959 213.89C39.0762 213.38 39.252 212.932 39.4863 212.545C39.7266 212.158 40.0254 211.856 40.3828 211.64C40.7461 211.423 41.165 211.314 41.6396 211.314C41.7686 211.314 41.9062 211.326 42.0527 211.35C42.2051 211.373 42.3193 211.399 42.3955 211.429ZM48.7676 219.093V214.558C48.7676 214.218 48.7061 213.925 48.583 213.679C48.46 213.433 48.2725 213.242 48.0205 213.107C47.7744 212.973 47.4639 212.905 47.0889 212.905C46.7432 212.905 46.4443 212.964 46.1924 213.081C45.9404 213.198 45.7441 213.356 45.6035 213.556C45.4629 213.755 45.3926 213.98 45.3926 214.232H43.2832C43.2832 213.857 43.374 213.494 43.5557 213.143C43.7373 212.791 44.001 212.478 44.3467 212.202C44.6924 211.927 45.1055 211.71 45.5859 211.552C46.0664 211.394 46.6055 211.314 47.2031 211.314C47.918 211.314 48.5508 211.435 49.1016 211.675C49.6582 211.915 50.0947 212.278 50.4111 212.765C50.7334 213.245 50.8945 213.849 50.8945 214.575V218.803C50.8945 219.236 50.9238 219.626 50.9824 219.972C51.0469 220.312 51.1377 220.607 51.2549 220.859V221H49.084C48.9844 220.771 48.9053 220.481 48.8467 220.13C48.7939 219.772 48.7676 219.427 48.7676 219.093ZM49.0752 215.217L49.0928 216.526H47.5723C47.1797 216.526 46.834 216.564 46.5352 216.641C46.2363 216.711 45.9873 216.816 45.7881 216.957C45.5889 217.098 45.4395 217.268 45.3398 217.467C45.2402 217.666 45.1904 217.892 45.1904 218.144C45.1904 218.396 45.249 218.627 45.3662 218.838C45.4834 219.043 45.6533 219.204 45.876 219.321C46.1045 219.438 46.3799 219.497 46.7021 219.497C47.1357 219.497 47.5137 219.409 47.8359 219.233C48.1641 219.052 48.4219 218.832 48.6094 218.574C48.7969 218.311 48.8965 218.062 48.9082 217.827L49.5938 218.768C49.5234 219.008 49.4033 219.266 49.2334 219.541C49.0635 219.816 48.8408 220.08 48.5654 220.332C48.2959 220.578 47.9707 220.78 47.5898 220.938C47.2148 221.097 46.7812 221.176 46.2891 221.176C45.668 221.176 45.1143 221.053 44.6279 220.807C44.1416 220.555 43.7607 220.218 43.4854 219.796C43.21 219.368 43.0723 218.885 43.0723 218.346C43.0723 217.842 43.166 217.396 43.3535 217.01C43.5469 216.617 43.8281 216.289 44.1973 216.025C44.5723 215.762 45.0293 215.562 45.5684 215.428C46.1074 215.287 46.7227 215.217 47.4141 215.217H49.0752ZM55.2363 213.318V224.656H53.1182V211.49H55.0693L55.2363 213.318ZM61.4326 216.157V216.342C61.4326 217.033 61.3506 217.675 61.1865 218.267C61.0283 218.853 60.791 219.365 60.4746 219.805C60.1641 220.238 59.7803 220.575 59.3232 220.815C58.8662 221.056 58.3389 221.176 57.7412 221.176C57.1494 221.176 56.6309 221.067 56.1855 220.851C55.7461 220.628 55.374 220.314 55.0693 219.91C54.7646 219.506 54.5186 219.031 54.3311 218.486C54.1494 217.936 54.0205 217.332 53.9443 216.676V215.964C54.0205 215.267 54.1494 214.634 54.3311 214.065C54.5186 213.497 54.7646 213.008 55.0693 212.598C55.374 212.188 55.7461 211.871 56.1855 211.648C56.625 211.426 57.1377 211.314 57.7236 211.314C58.3213 211.314 58.8516 211.432 59.3145 211.666C59.7773 211.895 60.167 212.223 60.4834 212.65C60.7998 213.072 61.0371 213.582 61.1953 214.18C61.3535 214.771 61.4326 215.431 61.4326 216.157ZM59.3145 216.342V216.157C59.3145 215.718 59.2734 215.311 59.1914 214.936C59.1094 214.555 58.9805 214.221 58.8047 213.934C58.6289 213.646 58.4033 213.424 58.1279 213.266C57.8584 213.102 57.5332 213.02 57.1523 213.02C56.7773 213.02 56.4551 213.084 56.1855 213.213C55.916 213.336 55.6904 213.509 55.5088 213.731C55.3271 213.954 55.1865 214.215 55.0869 214.514C54.9873 214.807 54.917 215.126 54.876 215.472V217.177C54.9463 217.599 55.0664 217.985 55.2363 218.337C55.4062 218.688 55.6465 218.97 55.957 219.181C56.2734 219.386 56.6777 219.488 57.1699 219.488C57.5508 219.488 57.876 219.406 58.1455 219.242C58.415 219.078 58.6348 218.853 58.8047 218.565C58.9805 218.272 59.1094 217.936 59.1914 217.555C59.2734 217.174 59.3145 216.77 59.3145 216.342ZM65.3262 207.5V221H63.2168V207.5H65.3262ZM64.957 215.894L64.2715 215.885C64.2773 215.229 64.3682 214.622 64.5439 214.065C64.7256 213.509 64.9775 213.025 65.2998 212.615C65.6279 212.199 66.0205 211.88 66.4775 211.657C66.9346 211.429 67.4414 211.314 67.998 211.314C68.4668 211.314 68.8887 211.379 69.2637 211.508C69.6445 211.637 69.9727 211.845 70.248 212.132C70.5234 212.413 70.7314 212.782 70.8721 213.239C71.0186 213.69 71.0918 214.241 71.0918 214.892V221H68.9648V214.874C68.9648 214.417 68.8975 214.054 68.7627 213.784C68.6338 213.515 68.4434 213.321 68.1914 213.204C67.9395 213.081 67.6318 213.02 67.2686 213.02C66.8877 213.02 66.5508 213.096 66.2578 213.248C65.9707 213.4 65.7305 213.608 65.5371 213.872C65.3438 214.136 65.1973 214.44 65.0977 214.786C65.0039 215.132 64.957 215.501 64.957 215.894ZM75.5039 211.49V221H73.377V211.49H75.5039ZM73.2363 208.994C73.2363 208.672 73.3418 208.405 73.5527 208.194C73.7695 207.978 74.0684 207.869 74.4492 207.869C74.8242 207.869 75.1201 207.978 75.3369 208.194C75.5537 208.405 75.6621 208.672 75.6621 208.994C75.6621 209.311 75.5537 209.574 75.3369 209.785C75.1201 209.996 74.8242 210.102 74.4492 210.102C74.0684 210.102 73.7695 209.996 73.5527 209.785C73.3418 209.574 73.2363 209.311 73.2363 208.994ZM83.1592 218.425C83.1592 218.214 83.1064 218.023 83.001 217.854C82.8955 217.678 82.6934 217.52 82.3945 217.379C82.1016 217.238 81.668 217.109 81.0938 216.992C80.5898 216.881 80.127 216.749 79.7051 216.597C79.2891 216.438 78.9316 216.248 78.6328 216.025C78.334 215.803 78.1025 215.539 77.9385 215.234C77.7744 214.93 77.6924 214.578 77.6924 214.18C77.6924 213.793 77.7773 213.427 77.9473 213.081C78.1172 212.735 78.3604 212.431 78.6768 212.167C78.9932 211.903 79.377 211.695 79.8281 211.543C80.2852 211.391 80.7949 211.314 81.3574 211.314C82.1543 211.314 82.8369 211.449 83.4053 211.719C83.9795 211.982 84.4189 212.343 84.7236 212.8C85.0283 213.251 85.1807 213.761 85.1807 214.329H83.0625C83.0625 214.077 82.998 213.843 82.8691 213.626C82.7461 213.403 82.5586 213.225 82.3066 213.09C82.0547 212.949 81.7383 212.879 81.3574 212.879C80.9941 212.879 80.6924 212.938 80.4521 213.055C80.2178 213.166 80.042 213.312 79.9248 213.494C79.8135 213.676 79.7578 213.875 79.7578 214.092C79.7578 214.25 79.7871 214.394 79.8457 214.522C79.9102 214.646 80.0156 214.76 80.1621 214.865C80.3086 214.965 80.5078 215.059 80.7598 215.146C81.0176 215.234 81.3398 215.319 81.7266 215.401C82.4531 215.554 83.0771 215.75 83.5986 215.99C84.126 216.225 84.5303 216.529 84.8115 216.904C85.0928 217.273 85.2334 217.742 85.2334 218.311C85.2334 218.732 85.1426 219.119 84.9609 219.471C84.7852 219.816 84.5273 220.118 84.1875 220.376C83.8477 220.628 83.4404 220.824 82.9658 220.965C82.4971 221.105 81.9697 221.176 81.3838 221.176C80.5225 221.176 79.793 221.023 79.1953 220.719C78.5977 220.408 78.1436 220.013 77.833 219.532C77.5283 219.046 77.376 218.542 77.376 218.021H79.4238C79.4473 218.413 79.5557 218.727 79.749 218.961C79.9482 219.189 80.1943 219.356 80.4873 219.462C80.7861 219.562 81.0938 219.611 81.4102 219.611C81.791 219.611 82.1104 219.562 82.3682 219.462C82.626 219.356 82.8223 219.216 82.957 219.04C83.0918 218.858 83.1592 218.653 83.1592 218.425ZM89.2061 213.424V221H87.0879V211.49H89.083L89.2061 213.424ZM88.8633 215.894L88.1426 215.885C88.1426 215.229 88.2246 214.622 88.3887 214.065C88.5527 213.509 88.793 213.025 89.1094 212.615C89.4258 212.199 89.8184 211.88 90.2871 211.657C90.7617 211.429 91.3096 211.314 91.9307 211.314C92.3643 211.314 92.7598 211.379 93.1172 211.508C93.4805 211.631 93.7939 211.827 94.0576 212.097C94.3271 212.366 94.5322 212.712 94.6729 213.134C94.8193 213.556 94.8926 214.065 94.8926 214.663V221H92.7744V214.848C92.7744 214.385 92.7041 214.021 92.5635 213.758C92.4287 213.494 92.2324 213.307 91.9746 213.195C91.7227 213.078 91.4209 213.02 91.0693 213.02C90.6709 213.02 90.3311 213.096 90.0498 213.248C89.7744 213.4 89.5488 213.608 89.373 213.872C89.1973 214.136 89.0684 214.44 88.9863 214.786C88.9043 215.132 88.8633 215.501 88.8633 215.894ZM94.7607 215.331L93.7676 215.551C93.7676 214.977 93.8467 214.435 94.0049 213.925C94.1689 213.409 94.4062 212.958 94.7168 212.571C95.0332 212.179 95.4229 211.871 95.8857 211.648C96.3486 211.426 96.8789 211.314 97.4766 211.314C97.9629 211.314 98.3965 211.382 98.7773 211.517C99.1641 211.646 99.4922 211.851 99.7617 212.132C100.031 212.413 100.236 212.779 100.377 213.23C100.518 213.676 100.588 214.215 100.588 214.848V221H98.4609V214.839C98.4609 214.358 98.3906 213.986 98.25 213.723C98.1152 213.459 97.9219 213.277 97.6699 213.178C97.418 213.072 97.1162 213.02 96.7646 213.02C96.4365 213.02 96.1465 213.081 95.8945 213.204C95.6484 213.321 95.4404 213.488 95.2705 213.705C95.1006 213.916 94.9717 214.159 94.8838 214.435C94.8018 214.71 94.7607 215.009 94.7607 215.331ZM106.96 221.176C106.257 221.176 105.621 221.062 105.053 220.833C104.49 220.599 104.01 220.273 103.611 219.857C103.219 219.441 102.917 218.952 102.706 218.39C102.495 217.827 102.39 217.221 102.39 216.57V216.219C102.39 215.475 102.498 214.801 102.715 214.197C102.932 213.594 103.233 213.078 103.62 212.65C104.007 212.217 104.464 211.886 104.991 211.657C105.519 211.429 106.09 211.314 106.705 211.314C107.385 211.314 107.979 211.429 108.489 211.657C108.999 211.886 109.421 212.208 109.755 212.624C110.095 213.034 110.347 213.523 110.511 214.092C110.681 214.66 110.766 215.287 110.766 215.973V216.878H103.418V215.357H108.674V215.19C108.662 214.81 108.586 214.452 108.445 214.118C108.311 213.784 108.103 213.515 107.821 213.31C107.54 213.104 107.165 213.002 106.696 213.002C106.345 213.002 106.031 213.078 105.756 213.23C105.486 213.377 105.261 213.591 105.079 213.872C104.897 214.153 104.757 214.493 104.657 214.892C104.563 215.284 104.517 215.727 104.517 216.219V216.57C104.517 216.986 104.572 217.373 104.684 217.73C104.801 218.082 104.971 218.39 105.193 218.653C105.416 218.917 105.686 219.125 106.002 219.277C106.318 219.424 106.679 219.497 107.083 219.497C107.593 219.497 108.047 219.395 108.445 219.189C108.844 218.984 109.189 218.694 109.482 218.319L110.599 219.4C110.394 219.699 110.127 219.986 109.799 220.262C109.471 220.531 109.069 220.751 108.595 220.921C108.126 221.091 107.581 221.176 106.96 221.176Z" fill="#06297A"/>
<path d="M386.127 67.4609V72.3477C385.945 72.5879 385.661 72.8516 385.274 73.1387C384.894 73.4199 384.387 73.6631 383.754 73.8682C383.121 74.0732 382.333 74.1758 381.39 74.1758C380.587 74.1758 379.852 74.041 379.184 73.7715C378.516 73.4961 377.938 73.0947 377.452 72.5674C376.972 72.04 376.6 71.3984 376.336 70.6426C376.072 69.8809 375.94 69.0137 375.94 68.041V67.1533C375.94 66.1865 376.061 65.3252 376.301 64.5693C376.547 63.8076 376.898 63.1631 377.355 62.6357C377.812 62.1084 378.363 61.71 379.008 61.4404C379.658 61.165 380.394 61.0273 381.214 61.0273C382.263 61.0273 383.13 61.2031 383.815 61.5547C384.507 61.9004 385.04 62.3809 385.415 62.9961C385.79 63.6113 386.027 64.3145 386.127 65.1055H383.965C383.895 64.6602 383.757 64.2617 383.552 63.9102C383.353 63.5586 383.065 63.2832 382.69 63.084C382.321 62.8789 381.841 62.7764 381.249 62.7764C380.739 62.7764 380.291 62.873 379.904 63.0664C379.518 63.2598 379.195 63.5439 378.938 63.9189C378.686 64.2939 378.495 64.751 378.366 65.29C378.237 65.8291 378.173 66.4443 378.173 67.1357V68.041C378.173 68.7441 378.246 69.3682 378.393 69.9131C378.545 70.458 378.762 70.918 379.043 71.293C379.33 71.668 379.679 71.9521 380.089 72.1455C380.499 72.333 380.962 72.4268 381.478 72.4268C381.981 72.4268 382.395 72.3857 382.717 72.3037C383.039 72.2158 383.294 72.1133 383.481 71.9961C383.675 71.873 383.824 71.7559 383.93 71.6445V69.1045H381.267V67.4609H386.127ZM392.552 74.1758C391.849 74.1758 391.213 74.0615 390.645 73.833C390.082 73.5986 389.602 73.2734 389.203 72.8574C388.811 72.4414 388.509 71.9521 388.298 71.3896C388.087 70.8271 387.981 70.2207 387.981 69.5703V69.2188C387.981 68.4746 388.09 67.8008 388.307 67.1973C388.523 66.5938 388.825 66.0781 389.212 65.6504C389.599 65.2168 390.056 64.8857 390.583 64.6572C391.11 64.4287 391.682 64.3145 392.297 64.3145C392.977 64.3145 393.571 64.4287 394.081 64.6572C394.591 64.8857 395.013 65.208 395.347 65.624C395.687 66.0342 395.938 66.5234 396.103 67.0918C396.272 67.6602 396.357 68.2871 396.357 68.9727V69.8779H389.01V68.3574H394.266V68.1904C394.254 67.8096 394.178 67.4521 394.037 67.1182C393.902 66.7842 393.694 66.5146 393.413 66.3096C393.132 66.1045 392.757 66.002 392.288 66.002C391.937 66.002 391.623 66.0781 391.348 66.2305C391.078 66.377 390.853 66.5908 390.671 66.8721C390.489 67.1533 390.349 67.4932 390.249 67.8916C390.155 68.2842 390.108 68.7266 390.108 69.2188V69.5703C390.108 69.9863 390.164 70.373 390.275 70.7305C390.393 71.082 390.562 71.3896 390.785 71.6533C391.008 71.917 391.277 72.125 391.594 72.2773C391.91 72.4238 392.271 72.4971 392.675 72.4971C393.185 72.4971 393.639 72.3945 394.037 72.1895C394.436 71.9844 394.781 71.6943 395.074 71.3193L396.19 72.4004C395.985 72.6992 395.719 72.9863 395.391 73.2617C395.062 73.5312 394.661 73.751 394.187 73.9209C393.718 74.0908 393.173 74.1758 392.552 74.1758ZM403.345 71.4248C403.345 71.2139 403.292 71.0234 403.187 70.8535C403.081 70.6777 402.879 70.5195 402.58 70.3789C402.287 70.2383 401.854 70.1094 401.279 69.9922C400.775 69.8809 400.312 69.749 399.891 69.5967C399.475 69.4385 399.117 69.248 398.818 69.0254C398.52 68.8027 398.288 68.5391 398.124 68.2344C397.96 67.9297 397.878 67.5781 397.878 67.1797C397.878 66.793 397.963 66.4268 398.133 66.0811C398.303 65.7354 398.546 65.4307 398.862 65.167C399.179 64.9033 399.562 64.6953 400.014 64.543C400.471 64.3906 400.98 64.3145 401.543 64.3145C402.34 64.3145 403.022 64.4492 403.591 64.7188C404.165 64.9824 404.604 65.3428 404.909 65.7998C405.214 66.251 405.366 66.7607 405.366 67.3291H403.248C403.248 67.0771 403.184 66.8428 403.055 66.626C402.932 66.4033 402.744 66.2246 402.492 66.0898C402.24 65.9492 401.924 65.8789 401.543 65.8789C401.18 65.8789 400.878 65.9375 400.638 66.0547C400.403 66.166 400.228 66.3125 400.11 66.4941C399.999 66.6758 399.943 66.875 399.943 67.0918C399.943 67.25 399.973 67.3936 400.031 67.5225C400.096 67.6455 400.201 67.7598 400.348 67.8652C400.494 67.9648 400.693 68.0586 400.945 68.1465C401.203 68.2344 401.525 68.3193 401.912 68.4014C402.639 68.5537 403.263 68.75 403.784 68.9902C404.312 69.2246 404.716 69.5293 404.997 69.9043C405.278 70.2734 405.419 70.7422 405.419 71.3105C405.419 71.7324 405.328 72.1191 405.146 72.4707C404.971 72.8164 404.713 73.1182 404.373 73.376C404.033 73.6279 403.626 73.8242 403.151 73.9648C402.683 74.1055 402.155 74.1758 401.569 74.1758C400.708 74.1758 399.979 74.0234 399.381 73.7188C398.783 73.4082 398.329 73.0127 398.019 72.5322C397.714 72.0459 397.562 71.542 397.562 71.0205H399.609C399.633 71.4131 399.741 71.7266 399.935 71.9609C400.134 72.1895 400.38 72.3564 400.673 72.4619C400.972 72.5615 401.279 72.6113 401.596 72.6113C401.977 72.6113 402.296 72.5615 402.554 72.4619C402.812 72.3564 403.008 72.2158 403.143 72.04C403.277 71.8584 403.345 71.6533 403.345 71.4248ZM411.633 64.4902V66.0371H406.271V64.4902H411.633ZM407.818 62.1611H409.937V71.3721C409.937 71.665 409.978 71.8906 410.06 72.0488C410.147 72.2012 410.268 72.3037 410.42 72.3564C410.572 72.4092 410.751 72.4355 410.956 72.4355C411.103 72.4355 411.243 72.4268 411.378 72.4092C411.513 72.3916 411.621 72.374 411.703 72.3564L411.712 73.9736C411.536 74.0264 411.331 74.0732 411.097 74.1143C410.868 74.1553 410.604 74.1758 410.306 74.1758C409.819 74.1758 409.389 74.0908 409.014 73.9209C408.639 73.7451 408.346 73.4609 408.135 73.0684C407.924 72.6758 407.818 72.1543 407.818 71.5039V62.1611ZM415.535 64.4902V74H413.408V64.4902H415.535ZM413.268 61.9941C413.268 61.6719 413.373 61.4053 413.584 61.1943C413.801 60.9775 414.1 60.8691 414.48 60.8691C414.855 60.8691 415.151 60.9775 415.368 61.1943C415.585 61.4053 415.693 61.6719 415.693 61.9941C415.693 62.3105 415.585 62.5742 415.368 62.7852C415.151 62.9961 414.855 63.1016 414.48 63.1016C414.1 63.1016 413.801 62.9961 413.584 62.7852C413.373 62.5742 413.268 62.3105 413.268 61.9941ZM417.451 69.3506V69.1484C417.451 68.4629 417.551 67.8271 417.75 67.2412C417.949 66.6494 418.236 66.1367 418.611 65.7031C418.992 65.2637 419.455 64.9238 420 64.6836C420.551 64.4375 421.172 64.3145 421.863 64.3145C422.561 64.3145 423.182 64.4375 423.727 64.6836C424.277 64.9238 424.743 65.2637 425.124 65.7031C425.505 66.1367 425.795 66.6494 425.994 67.2412C426.193 67.8271 426.293 68.4629 426.293 69.1484V69.3506C426.293 70.0361 426.193 70.6719 425.994 71.2578C425.795 71.8438 425.505 72.3564 425.124 72.7959C424.743 73.2295 424.28 73.5693 423.735 73.8154C423.19 74.0557 422.572 74.1758 421.881 74.1758C421.184 74.1758 420.56 74.0557 420.009 73.8154C419.464 73.5693 419.001 73.2295 418.62 72.7959C418.239 72.3564 417.949 71.8438 417.75 71.2578C417.551 70.6719 417.451 70.0361 417.451 69.3506ZM419.569 69.1484V69.3506C419.569 69.7783 419.613 70.1826 419.701 70.5635C419.789 70.9443 419.927 71.2783 420.114 71.5654C420.302 71.8525 420.542 72.0781 420.835 72.2422C421.128 72.4062 421.477 72.4883 421.881 72.4883C422.273 72.4883 422.613 72.4062 422.9 72.2422C423.193 72.0781 423.434 71.8525 423.621 71.5654C423.809 71.2783 423.946 70.9443 424.034 70.5635C424.128 70.1826 424.175 69.7783 424.175 69.3506V69.1484C424.175 68.7266 424.128 68.3281 424.034 67.9531C423.946 67.5723 423.806 67.2354 423.612 66.9424C423.425 66.6494 423.185 66.4209 422.892 66.2568C422.604 66.0869 422.262 66.002 421.863 66.002C421.465 66.002 421.119 66.0869 420.826 66.2568C420.539 66.4209 420.302 66.6494 420.114 66.9424C419.927 67.2354 419.789 67.5723 419.701 67.9531C419.613 68.3281 419.569 68.7266 419.569 69.1484ZM430.169 66.5205V74H428.051V64.4902H430.046L430.169 66.5205ZM429.791 68.8936L429.105 68.8848C429.111 68.2109 429.205 67.5928 429.387 67.0303C429.574 66.4678 429.832 65.9844 430.16 65.5801C430.494 65.1758 430.893 64.8652 431.355 64.6484C431.818 64.4258 432.334 64.3145 432.902 64.3145C433.359 64.3145 433.772 64.3789 434.142 64.5078C434.517 64.6309 434.836 64.833 435.1 65.1143C435.369 65.3955 435.574 65.7617 435.715 66.2129C435.855 66.6582 435.926 67.2061 435.926 67.8564V74H433.799V67.8477C433.799 67.3906 433.731 67.0303 433.597 66.7666C433.468 66.4971 433.277 66.3066 433.025 66.1953C432.779 66.0781 432.472 66.0195 432.103 66.0195C431.739 66.0195 431.414 66.0957 431.127 66.248C430.84 66.4004 430.597 66.6084 430.397 66.8721C430.204 67.1357 430.055 67.4404 429.949 67.7861C429.844 68.1318 429.791 68.501 429.791 68.8936ZM448.371 72.0312V60.5H450.498V74H448.573L448.371 72.0312ZM442.184 69.3506V69.166C442.184 68.4453 442.269 67.7891 442.438 67.1973C442.608 66.5996 442.854 66.0869 443.177 65.6592C443.499 65.2256 443.892 64.8945 444.354 64.666C444.817 64.4316 445.339 64.3145 445.919 64.3145C446.493 64.3145 446.997 64.4258 447.431 64.6484C447.864 64.8711 448.233 65.1904 448.538 65.6064C448.843 66.0166 449.086 66.5088 449.268 67.083C449.449 67.6514 449.578 68.2842 449.654 68.9814V69.5703C449.578 70.25 449.449 70.8711 449.268 71.4336C449.086 71.9961 448.843 72.4824 448.538 72.8926C448.233 73.3027 447.861 73.6191 447.422 73.8418C446.988 74.0645 446.481 74.1758 445.901 74.1758C445.327 74.1758 444.809 74.0557 444.346 73.8154C443.889 73.5752 443.499 73.2383 443.177 72.8047C442.854 72.3711 442.608 71.8613 442.438 71.2754C442.269 70.6836 442.184 70.042 442.184 69.3506ZM444.302 69.166V69.3506C444.302 69.7842 444.34 70.1885 444.416 70.5635C444.498 70.9385 444.624 71.2695 444.794 71.5566C444.964 71.8379 445.184 72.0605 445.453 72.2246C445.729 72.3828 446.057 72.4619 446.438 72.4619C446.918 72.4619 447.313 72.3564 447.624 72.1455C447.935 71.9346 448.178 71.6504 448.354 71.293C448.535 70.9297 448.658 70.5254 448.723 70.0801V68.4893C448.688 68.1436 448.614 67.8213 448.503 67.5225C448.397 67.2236 448.254 66.9629 448.072 66.7402C447.891 66.5117 447.665 66.3359 447.396 66.2129C447.132 66.084 446.818 66.0195 446.455 66.0195C446.068 66.0195 445.74 66.1016 445.471 66.2656C445.201 66.4297 444.979 66.6553 444.803 66.9424C444.633 67.2295 444.507 67.5635 444.425 67.9443C444.343 68.3252 444.302 68.7324 444.302 69.166ZM456.905 74.1758C456.202 74.1758 455.566 74.0615 454.998 73.833C454.436 73.5986 453.955 73.2734 453.557 72.8574C453.164 72.4414 452.862 71.9521 452.651 71.3896C452.44 70.8271 452.335 70.2207 452.335 69.5703V69.2188C452.335 68.4746 452.443 67.8008 452.66 67.1973C452.877 66.5938 453.179 66.0781 453.565 65.6504C453.952 65.2168 454.409 64.8857 454.937 64.6572C455.464 64.4287 456.035 64.3145 456.65 64.3145C457.33 64.3145 457.925 64.4287 458.435 64.6572C458.944 64.8857 459.366 65.208 459.7 65.624C460.04 66.0342 460.292 66.5234 460.456 67.0918C460.626 67.6602 460.711 68.2871 460.711 68.9727V69.8779H453.363V68.3574H458.619V68.1904C458.607 67.8096 458.531 67.4521 458.391 67.1182C458.256 66.7842 458.048 66.5146 457.767 66.3096C457.485 66.1045 457.11 66.002 456.642 66.002C456.29 66.002 455.977 66.0781 455.701 66.2305C455.432 66.377 455.206 66.5908 455.024 66.8721C454.843 67.1533 454.702 67.4932 454.603 67.8916C454.509 68.2842 454.462 68.7266 454.462 69.2188V69.5703C454.462 69.9863 454.518 70.373 454.629 70.7305C454.746 71.082 454.916 71.3896 455.139 71.6533C455.361 71.917 455.631 72.125 455.947 72.2773C456.264 72.4238 456.624 72.4971 457.028 72.4971C457.538 72.4971 457.992 72.3945 458.391 72.1895C458.789 71.9844 459.135 71.6943 459.428 71.3193L460.544 72.4004C460.339 72.6992 460.072 72.9863 459.744 73.2617C459.416 73.5312 459.015 73.751 458.54 73.9209C458.071 74.0908 457.526 74.1758 456.905 74.1758ZM468.973 66.3184V77.6562H466.854V64.4902H468.806L468.973 66.3184ZM475.169 69.1572V69.3418C475.169 70.0332 475.087 70.6748 474.923 71.2666C474.765 71.8525 474.527 72.3652 474.211 72.8047C473.9 73.2383 473.517 73.5752 473.06 73.8154C472.603 74.0557 472.075 74.1758 471.478 74.1758C470.886 74.1758 470.367 74.0674 469.922 73.8506C469.482 73.6279 469.11 73.3145 468.806 72.9102C468.501 72.5059 468.255 72.0312 468.067 71.4863C467.886 70.9355 467.757 70.332 467.681 69.6758V68.9639C467.757 68.2666 467.886 67.6338 468.067 67.0654C468.255 66.4971 468.501 66.0078 468.806 65.5977C469.11 65.1875 469.482 64.8711 469.922 64.6484C470.361 64.4258 470.874 64.3145 471.46 64.3145C472.058 64.3145 472.588 64.4316 473.051 64.666C473.514 64.8945 473.903 65.2227 474.22 65.6504C474.536 66.0723 474.773 66.582 474.932 67.1797C475.09 67.7715 475.169 68.4307 475.169 69.1572ZM473.051 69.3418V69.1572C473.051 68.7178 473.01 68.3105 472.928 67.9355C472.846 67.5547 472.717 67.2207 472.541 66.9336C472.365 66.6465 472.14 66.4238 471.864 66.2656C471.595 66.1016 471.27 66.0195 470.889 66.0195C470.514 66.0195 470.191 66.084 469.922 66.2129C469.652 66.3359 469.427 66.5088 469.245 66.7314C469.063 66.9541 468.923 67.2148 468.823 67.5137C468.724 67.8066 468.653 68.126 468.612 68.4717V70.1768C468.683 70.5986 468.803 70.9854 468.973 71.3369C469.143 71.6885 469.383 71.9697 469.693 72.1807C470.01 72.3857 470.414 72.4883 470.906 72.4883C471.287 72.4883 471.612 72.4062 471.882 72.2422C472.151 72.0781 472.371 71.8525 472.541 71.5654C472.717 71.2725 472.846 70.9355 472.928 70.5547C473.01 70.1738 473.051 69.7695 473.051 69.3418ZM479.098 66.3008V74H476.979V64.4902H479.001L479.098 66.3008ZM482.007 64.4287L481.989 66.3975C481.86 66.374 481.72 66.3564 481.567 66.3447C481.421 66.333 481.274 66.3271 481.128 66.3271C480.765 66.3271 480.445 66.3799 480.17 66.4854C479.895 66.585 479.663 66.7314 479.476 66.9248C479.294 67.1123 479.153 67.3408 479.054 67.6104C478.954 67.8799 478.896 68.1816 478.878 68.5156L478.395 68.5508C478.395 67.9531 478.453 67.3994 478.57 66.8896C478.688 66.3799 478.863 65.9316 479.098 65.5449C479.338 65.1582 479.637 64.8564 479.994 64.6396C480.357 64.4229 480.776 64.3145 481.251 64.3145C481.38 64.3145 481.518 64.3262 481.664 64.3496C481.816 64.373 481.931 64.3994 482.007 64.4287ZM482.701 69.3506V69.1484C482.701 68.4629 482.801 67.8271 483 67.2412C483.199 66.6494 483.486 66.1367 483.861 65.7031C484.242 65.2637 484.705 64.9238 485.25 64.6836C485.801 64.4375 486.422 64.3145 487.113 64.3145C487.811 64.3145 488.432 64.4375 488.977 64.6836C489.527 64.9238 489.993 65.2637 490.374 65.7031C490.755 66.1367 491.045 66.6494 491.244 67.2412C491.443 67.8271 491.543 68.4629 491.543 69.1484V69.3506C491.543 70.0361 491.443 70.6719 491.244 71.2578C491.045 71.8438 490.755 72.3564 490.374 72.7959C489.993 73.2295 489.53 73.5693 488.985 73.8154C488.44 74.0557 487.822 74.1758 487.131 74.1758C486.434 74.1758 485.81 74.0557 485.259 73.8154C484.714 73.5693 484.251 73.2295 483.87 72.7959C483.489 72.3564 483.199 71.8438 483 71.2578C482.801 70.6719 482.701 70.0361 482.701 69.3506ZM484.819 69.1484V69.3506C484.819 69.7783 484.863 70.1826 484.951 70.5635C485.039 70.9443 485.177 71.2783 485.364 71.5654C485.552 71.8525 485.792 72.0781 486.085 72.2422C486.378 72.4062 486.727 72.4883 487.131 72.4883C487.523 72.4883 487.863 72.4062 488.15 72.2422C488.443 72.0781 488.684 71.8525 488.871 71.5654C489.059 71.2783 489.196 70.9443 489.284 70.5635C489.378 70.1826 489.425 69.7783 489.425 69.3506V69.1484C489.425 68.7266 489.378 68.3281 489.284 67.9531C489.196 67.5723 489.056 67.2354 488.862 66.9424C488.675 66.6494 488.435 66.4209 488.142 66.2568C487.854 66.0869 487.512 66.002 487.113 66.002C486.715 66.002 486.369 66.0869 486.076 66.2568C485.789 66.4209 485.552 66.6494 485.364 66.9424C485.177 67.2354 485.039 67.5723 484.951 67.9531C484.863 68.3281 484.819 68.7266 484.819 69.1484ZM493.424 64.4902H495.551V74.8262C495.551 75.4766 495.439 76.0244 495.217 76.4697C494.994 76.9209 494.666 77.2607 494.232 77.4893C493.799 77.7236 493.269 77.8408 492.642 77.8408C492.454 77.8408 492.261 77.8262 492.062 77.7969C491.856 77.7734 491.663 77.7383 491.481 77.6914L491.49 76.0391C491.613 76.0625 491.745 76.0801 491.886 76.0918C492.021 76.1094 492.149 76.1182 492.272 76.1182C492.524 76.1182 492.735 76.0742 492.905 75.9863C493.075 75.8984 493.204 75.7607 493.292 75.5732C493.38 75.3857 493.424 75.1367 493.424 74.8262V64.4902ZM493.239 61.9941C493.239 61.6719 493.348 61.4053 493.564 61.1943C493.781 60.9775 494.077 60.8691 494.452 60.8691C494.833 60.8691 495.129 60.9775 495.34 61.1943C495.557 61.4053 495.665 61.6719 495.665 61.9941C495.665 62.3105 495.557 62.5742 495.34 62.7852C495.129 62.9961 494.833 63.1016 494.452 63.1016C494.077 63.1016 493.781 62.9961 493.564 62.7852C493.348 62.5742 493.239 62.3105 493.239 61.9941ZM502.028 74.1758C501.325 74.1758 500.689 74.0615 500.121 73.833C499.559 73.5986 499.078 73.2734 498.68 72.8574C498.287 72.4414 497.985 71.9521 497.774 71.3896C497.563 70.8271 497.458 70.2207 497.458 69.5703V69.2188C497.458 68.4746 497.566 67.8008 497.783 67.1973C498 66.5938 498.302 66.0781 498.688 65.6504C499.075 65.2168 499.532 64.8857 500.06 64.6572C500.587 64.4287 501.158 64.3145 501.773 64.3145C502.453 64.3145 503.048 64.4287 503.558 64.6572C504.067 64.8857 504.489 65.208 504.823 65.624C505.163 66.0342 505.415 66.5234 505.579 67.0918C505.749 67.6602 505.834 68.2871 505.834 68.9727V69.8779H498.486V68.3574H503.742V68.1904C503.73 67.8096 503.654 67.4521 503.514 67.1182C503.379 66.7842 503.171 66.5146 502.89 66.3096C502.608 66.1045 502.233 66.002 501.765 66.002C501.413 66.002 501.1 66.0781 500.824 66.2305C500.555 66.377 500.329 66.5908 500.147 66.8721C499.966 67.1533 499.825 67.4932 499.726 67.8916C499.632 68.2842 499.585 68.7266 499.585 69.2188V69.5703C499.585 69.9863 499.641 70.373 499.752 70.7305C499.869 71.082 500.039 71.3896 500.262 71.6533C500.484 71.917 500.754 72.125 501.07 72.2773C501.387 72.4238 501.747 72.4971 502.151 72.4971C502.661 72.4971 503.115 72.3945 503.514 72.1895C503.912 71.9844 504.258 71.6943 504.551 71.3193L505.667 72.4004C505.462 72.6992 505.195 72.9863 504.867 73.2617C504.539 73.5312 504.138 73.751 503.663 73.9209C503.194 74.0908 502.649 74.1758 502.028 74.1758ZM511.846 64.4902V66.0371H506.484V64.4902H511.846ZM508.031 62.1611H510.149V71.3721C510.149 71.665 510.19 71.8906 510.272 72.0488C510.36 72.2012 510.48 72.3037 510.633 72.3564C510.785 72.4092 510.964 72.4355 511.169 72.4355C511.315 72.4355 511.456 72.4268 511.591 72.4092C511.726 72.3916 511.834 72.374 511.916 72.3564L511.925 73.9736C511.749 74.0264 511.544 74.0732 511.31 74.1143C511.081 74.1553 510.817 74.1758 510.519 74.1758C510.032 74.1758 509.602 74.0908 509.227 73.9209C508.852 73.7451 508.559 73.4609 508.348 73.0684C508.137 72.6758 508.031 72.1543 508.031 71.5039V62.1611Z" fill="#06297A"/>
<g clip-path="url(#clip0_120_77)">
<path d="M346.452 108.892L381.388 139.52C382.82 139.93 383.838 138.477 385.033 137.928C393.347 134.094 405.156 127.933 414.048 132.034L396.665 153.317L432.062 185.015C430.374 186.076 428.694 184.104 427.416 183.177C415.873 174.784 405.23 163.833 393.371 155.674C369.936 179.952 344.138 201.732 318.697 223.838L265.496 268.139L340.609 282.338C347.066 284.666 353.504 287.071 359.97 289.345C361.39 289.85 370.661 291.807 369.964 293.57L366.169 303.165L334.642 301.308L253.55 286.202C253.688 284.608 253.878 282.994 254.472 281.499C264.457 256.809 274.289 232.009 283.971 207.23L285.532 205.315C286.117 204.529 286.713 203.748 287.372 203.023C288.03 202.297 288.678 201.596 289.438 201.029C316.994 180.057 345.048 159.317 375.166 142.184L339.751 113.015L339.941 111.729C339.608 110.202 340.823 110.26 342.037 110.746C351.278 118.336 360.628 125.773 370.065 133.077L344.503 109.996C344.246 108.031 345.095 108.144 346.459 108.909L346.452 108.892Z" fill="white"/>
<path d="M272.074 74.0851C265.942 90.6172 259.301 108.482 252.384 124.985C249.928 124.6 234.326 121.368 234.266 119.902L235.602 117.818C237.74 115.755 239.634 112.816 242.4 111.213C242.647 110.907 242.114 110.689 241.726 110.663C238.213 110.416 225.428 115.382 220.463 116.142C215.498 116.902 207.934 117.214 202.55 117.463C199.058 117.624 192 118.998 195.639 113.427L216.367 108.655L214.681 99.3672L213.549 99.2163L179.611 109.211C178.711 110.458 186.001 122.002 185.017 124.524C184.717 125.277 184.493 125.465 183.816 125.84C183.053 126.249 174.281 128.287 173.592 128.101L150.573 114.468C149.293 112.627 154.357 106.337 155.831 104.883C157.433 103.3 163.76 102.064 166.334 101.36C201.376 91.6473 236.887 83.3786 272.039 74.0986L272.074 74.0851Z" fill="white"/>
<path d="M244.823 146.041C237.201 150.775 230.441 156.77 223.167 162.012C219.632 164.564 215.901 166.745 212.3 169.154L210.158 169.718C203.675 168.006 197.239 166.186 190.845 164.271C191.134 163.214 191.794 162.418 192.477 161.603C205.516 145.842 220.918 131.922 235.602 117.818C234.62 119.614 235.061 119.549 236.8 120.107C241.732 121.714 247.006 122.372 251.896 124.174L252.984 123.706L272.086 74.0903L272.807 73.7771C272.438 76.097 272.03 78.4424 271.198 80.6462C263.3 101.527 255.24 122.422 246.82 143.062L244.842 146.063L244.823 146.041Z" fill="#E4E4E5"/>
<path d="M329.627 93.8364C330.47 96.3849 329.084 99.7302 326.75 101.094C325.603 105.627 324.433 110.178 322.781 114.562C312.043 142.945 300.526 171.088 288.831 199.082L285.549 205.308C275.157 231.489 265.327 260.966 253.567 286.195C236.573 322.658 186.36 302.127 197.376 266.067C198.034 263.902 199.149 261.736 199.925 259.593C200.898 251.763 204.483 243.302 208.95 236.78C220.733 206.486 232.831 176.258 244.823 146.041C254.311 122.132 262.995 97.317 272.8 73.7599C273.735 71.5155 275.541 67.6973 276.702 65.4233C294.002 31.4022 343.069 51.5201 331.969 87.8709C331.349 89.8821 330.335 91.8498 329.615 93.8312L329.627 93.8364Z" fill="#13025E"/>
<path d="M184.729 214.611C189.144 215.964 182.379 221.086 180.812 218.465C174.531 216.584 177.019 217.583 171.681 218.708C165.168 220.076 163.688 214.67 165.762 209.514C159.067 209.663 155.061 205.081 158.052 198.672C151.061 198.977 147.013 194.391 150.342 187.829C143.365 188.168 139.015 183.523 142.632 176.986C128.332 177.444 133.187 164.889 142.505 160.323C143.23 159.968 143.64 159.092 144.643 159.8C136.573 168.474 135.836 174.782 148.881 168.075C151.838 166.555 155.863 161.864 158.755 165.077C161.317 167.904 153.845 172.39 152.002 174.296C143.475 183.07 147.461 183.609 156.231 179.089C158.915 177.706 165.818 171.318 167.23 176.88C167.896 179.508 161.329 183.391 159.412 185.436C158.536 186.366 154.355 191.088 154.729 191.964C157.433 193.384 161.064 191.33 163.579 190.074C166.094 188.817 174.844 181.365 174.981 188.154C175.038 190.674 169.122 194.141 167.122 196.278C165.553 197.947 163.484 200.211 162.874 202.397C163.45 204.872 170.195 201.466 171.625 200.735C174.39 199.33 178.415 195.196 181.347 196.516C186.848 199.011 176.785 204.993 174.832 207.121C173.42 208.659 171.901 210.249 171.278 212.302C175.984 210.859 181.295 210.221 184.736 214.628L184.729 214.611Z" fill="white"/>
<path d="M199.925 259.593L180.875 233.476C179.697 233.561 179.225 231.83 179.852 231.077C180.941 229.755 189.231 223.914 191.31 222.482C194.634 219.596 196.557 219.207 197.084 221.304L208.944 236.792C205.987 244.399 202.716 251.942 199.92 259.605L199.925 259.593Z" fill="white"/>
<path d="M190.845 164.271C191.229 164.01 191.702 163.546 192.156 163.616L212.3 169.154C209.705 170.889 207.307 173.024 204.597 174.695C200.618 177.153 174.978 193.071 181.335 177.592C182.512 174.726 188.362 165.912 190.845 164.271Z" fill="white"/>
<path d="M339.946 111.718L338.398 112.127C334.37 109.232 330.556 106.074 326.934 102.671L326.745 101.106C327.671 98.6869 328.732 96.2836 329.622 93.8484L346.464 108.897L344.965 108.9L371.408 132.678C373.043 134.816 370.722 134.874 368.993 133.736C359.92 127.76 350.892 118.239 341.777 111.931C341.301 111.224 340.041 111.759 339.958 111.723L339.946 111.718Z" fill="#C2C2C4"/>
<path d="M197.089 221.292C195.742 220.392 195.761 220.97 194.829 221.505C189.966 224.291 185.761 229.003 180.694 231.6L180.892 233.469C178.429 234.477 173.114 226.973 173.188 225.822C173.276 224.278 178.191 221.372 179.686 220.198C180.35 219.689 181.236 219.619 180.835 218.446C181.893 218.765 184.519 217.057 185.257 216.181C185.753 215.599 185.128 215.07 184.752 214.593C187.704 216.62 189.27 211.813 192.185 211.7C194.313 214.637 198.154 217.408 197.1 221.268L197.089 221.292Z" fill="#C0C0C2"/>
<path d="M306.962 223.973C318.017 209.229 332.979 196.386 349.671 188.702C338.669 203.683 323.615 215.887 306.962 223.973Z" fill="#C1C1C3"/>
<path d="M366.467 294.855C365.296 295.514 343.387 289.806 339.97 289.829C336.995 289.26 338.361 285.992 339.207 284.051C340.148 283.463 353.954 288.821 356.249 289.607C359.707 290.799 363.699 291.455 367.087 293.301C366.844 293.694 366.642 294.747 366.472 294.843L366.467 294.855Z" fill="#C1C1C3"/>
<path d="M365.024 301.441C363.885 302.256 340.442 299.743 337.051 299.934C335.629 299.5 336.591 295.229 337.383 294.719C338.601 293.952 362.438 298.932 365.652 299.932C365.411 300.355 365.3 301.233 365.017 301.423L365.024 301.441Z" fill="#C2C1C3"/>
<path d="M175.798 103.758C175.418 102.993 180.111 101.188 180.794 100.93C186.782 98.6057 194.817 96.4601 201.234 97.0458C199.147 99.515 176.566 105.333 175.793 103.77L175.798 103.758Z" fill="#C3C3C5"/>
<path d="M331.047 85.2739L250.848 288.346C234.247 318.309 190.075 300.865 198.523 267.722L278.911 64.5749C295.489 35.3859 338.883 52.5198 331.042 85.2859L331.047 85.2739Z" fill="#06297A"/>
<path d="M280.716 190.216L269.051 185.605C269.051 185.605 267.985 186.025 267.964 186.073L263.354 197.736L251.689 193.126C251.689 193.126 251.196 192.098 251.222 192.038L255.832 180.375L244.167 175.764C243.593 175.543 243.92 174.203 244.073 173.656C244.55 171.84 246.875 165.781 247.804 164.304C248.052 163.899 248.727 163.167 249.092 163.311L260.757 167.922L265.367 156.258C265.367 156.258 266.394 155.765 266.454 155.791L278.119 160.402L273.509 172.065C273.509 172.065 273.929 173.132 273.977 173.153L285.642 177.763L280.722 190.204L280.716 190.216Z" fill="#F0F1F1"/>
<path d="M308.698 78.2194C306.987 83.9466 297.135 80.7387 300.034 74.6736C302.284 69.9656 310.324 72.7834 308.698 78.2194Z" fill="#F0EFEE"/>
<path d="M180 245.5C165 262 128.4 282.8 102 234" stroke="#06297A" stroke-width="2" stroke-dasharray="2 2"/>
<path d="M286.5 309C295.667 327.5 323.2 360.7 360 345.5" stroke="#06297A" stroke-width="2" stroke-dasharray="2 2"/>
<path d="M393.5 176C386.5 182.333 376.7 198.7 393.5 213.5" stroke="#06297A" stroke-width="2" stroke-dasharray="2 2"/>
<path d="M229.278 74.9485C225.973 57.8812 209.797 28.9738 171.535 49.8833" stroke="#06297A" stroke-width="2" stroke-dasharray="2 2"/>
<path d="M389.609 222.989L399.034 217.318L399.281 209" stroke="#06297A" stroke-width="2"/>
</g>
<path d="M366.056 348.456L365.499 341.745L361 339.355" stroke="#06297A" stroke-width="2"/>
<path d="M108.5 226H97.5L93 233" stroke="#06297A" stroke-width="2"/>
<path d="M172 40.8799L173.383 51.7927L180.893 55.377" stroke="#06297A" stroke-width="2"/>
<path d="M502.975 89.242L493.249 84.1025L486 88.189" stroke="#06297A" stroke-width="2"/>
<path d="M493.5 89C493 115 475.8 164 411 152" stroke="#06297A" stroke-width="2" stroke-dasharray="2 2"/>
<defs>
<clipPath id="clip0_120_77">
<rect width="287" height="272" fill="white" transform="translate(199.62) rotate(23.5369)"/>
</clipPath>
</defs>
</svg>
