<svg width="1440" height="946" viewBox="0 0 1440 946" fill="none" xmlns="http://www.w3.org/2000/svg">
<g opacity="0.22" clip-path="url(#clip0_106_8)">
<path d="M-12.9694 -101.265C54.5692 -100.33 121.143 -89.3247 188.529 -86.4691C253.274 -83.7272 312.547 -98.8771 374.943 -113.711C440.387 -129.265 499.964 -131.78 566.042 -118.121C626.432 -105.637 686.644 -86.0647 748.85 -85.8626C799.069 -85.6983 845.822 -100.798 894.428 -110.893C952.304 -122.922 1010.34 -119.043 1068.88 -114.482C1136.03 -109.251 1202.84 -102.756 1270.27 -104.171C1336.66 -105.561 1402.84 -111.184 1469.29 -111.588C1471.28 -75.7795 1489.49 -46.6547 1493.97 -11.8061C1500.51 39.039 1476.68 89.9347 1463.04 137.912C1439.72 219.979 1467.07 298.028 1471.88 380.727C1473.97 416.827 1486.66 448.15 1495.67 482.746C1505.87 521.916 1500.92 558.306 1491.32 597.122C1480.17 642.218 1463.27 688.78 1471.92 735.758C1479.59 777.367 1499.46 814.073 1502.33 856.895C1428.35 855.947 1355.09 845.775 1281.22 842.819C1210.13 839.976 1143.8 855.922 1074.58 869.467C1014.73 881.18 953.993 877.592 895.977 897.657C841.657 916.433 789.508 944.218 730.756 945.318C665.655 946.531 600.605 927.666 536.8 917.33C476.765 907.601 416.388 909.269 355.808 906.615C324.127 905.225 292.472 903.545 260.779 902.496C230.673 901.51 199.221 904.379 169.61 898.01C105.677 884.263 59.8896 835.895 -7.7634 831.763C-9.9347 791.443 -26.34 755.571 -31.5207 715.984C-36.8156 675.538 -33.0444 632.704 -33.0444 591.954C-33.0444 515.952 -33.0444 439.962 -33.0444 363.96C-33.0444 287.97 -33.0444 211.981 -33.0444 135.991C-33.0444 95.0773 -36.1172 52.799 -31.8381 12.0749C-27.8003 -26.3748 -14.6074 -62.2974 -12.944 -101.24L-12.9694 -101.265Z" stroke="#F6F1D5" stroke-width="2" stroke-miterlimit="10"/>
<path d="M-33.0571 692.57C41.4398 695.3 109.728 725.536 183.145 734.318C215.093 738.134 247.243 736.946 279.203 741.444C314.769 746.448 349.878 754.13 385.19 760.562C445.301 771.517 505.64 770.076 565.788 779.3C621.582 787.854 677.756 803.649 734.641 802.259C797.088 800.73 853.085 768.914 910.402 747.964C969.839 726.244 1027.36 728.733 1089.7 728.733C1155.21 728.733 1221.6 731.879 1286.99 727.735C1348.24 723.856 1407.68 709.161 1469.29 708.087" stroke="#F6F1D5" stroke-width="2" stroke-miterlimit="10"/>
<path d="M-33.0571 528.259C43.5984 533.3 101.55 585.258 174.308 602.833C209.544 611.337 246.913 608.646 282.695 615.987C313.69 622.343 344.113 631.112 374.829 638.642C437.669 654.045 495.037 658.202 557.979 641.233C614.928 625.881 669.629 602.404 729.448 601.178C787.87 599.978 846.546 605.411 904.866 608.027C966.602 610.794 1028.35 610.238 1090.14 610.225C1121.27 610.225 1152.41 610.225 1183.54 610.225C1219.36 610.225 1257.57 613.915 1292.55 605.259C1366.26 587.026 1424.55 533.578 1502.33 528.272" stroke="#F6F1D5" stroke-width="2" stroke-miterlimit="10"/>
<path d="M-33.0571 363.947C55.7247 373.184 108.94 455.453 190.535 482.38C255.547 503.822 318.934 461.708 375.667 435.565C434.736 408.348 486.479 403.168 548.507 424.244C605.507 443.614 658.722 474.685 720.369 476.226C781.711 477.755 843.663 469.239 904.739 464.791C966.754 460.28 1026.81 462.34 1087.1 444.903C1119.67 435.477 1151.59 423.865 1184.57 415.892C1218.23 407.754 1250.5 407.919 1284.64 405.278C1347.75 400.388 1408.24 382.155 1471.87 380.74" stroke="#F6F1D5" stroke-width="2" stroke-miterlimit="10"/>
<path d="M-33.0571 199.636C46.4046 205.815 100.166 268.537 175.26 286.644C236.45 301.402 297.614 272.05 354.017 252.212C419.296 229.266 474.886 224.528 537.981 256.596C593.253 284.685 647.828 330.501 712.56 331.74C766.804 332.776 815.436 307.227 865.859 291.357C922.261 273.604 979.706 277.685 1038.06 279.328C1099.69 281.059 1169.12 291.774 1229.79 279.378C1307.63 263.47 1370.12 208.367 1451.12 202.87" stroke="#F6F1D5" stroke-width="2" stroke-miterlimit="10"/>
<path d="M-33.0571 35.3116C36.5767 33.4541 102.871 12.8457 171.87 6.25C250.417 -1.25546 309.207 35.9939 376.987 69.7937C407.69 85.1079 439.396 99.1333 473.997 101.989C503.595 104.428 532.355 105.438 561.712 110.556C617.658 120.298 673.477 136.699 730.743 135.978C791.92 135.208 848.933 110.707 907.126 94.9383C968.582 78.2848 1032.27 81.4689 1095.3 75.7703C1127.7 72.8389 1160.06 69.4273 1192.49 66.9634C1228.6 64.2089 1266.23 66.7612 1301.83 60.2792C1368.85 48.0987 1425.82 10.2302 1495.2 6.93232" stroke="#F6F1D5" stroke-width="2" stroke-miterlimit="10"/>
<path d="M1238.66 -103.843C1241.25 -53.2125 1259.26 -5.56415 1263.55 44.7124C1268.39 101.433 1237.24 154.793 1217.52 206.32C1202.22 246.299 1186.5 287.579 1211.27 326.711C1228.66 354.18 1249.2 372.514 1251.51 406.756C1257.17 490.845 1254.23 576.64 1254.23 660.931C1254.23 721.733 1247.49 781.562 1246.44 842.086" stroke="#F6F1D5" stroke-width="2" stroke-miterlimit="10"/>
<path d="M969.141 -119.321C971.414 -57.875 985.711 2.23192 989.279 63.5266C992.314 115.61 970.652 163.435 955.986 212.41C941.828 259.717 941.193 295.88 958.64 342.568C973.001 380.993 993.279 419.038 995.069 460.735C997.914 527.021 981.419 592.258 990.727 658.695C995.158 690.334 999.247 720.76 996.491 752.854C992.784 795.891 981.051 837.436 979.515 880.776" stroke="#F6F1D5" stroke-width="2" stroke-miterlimit="10"/>
<path d="M748.901 -85.7741C746.882 -19.4253 735.289 46.1022 731.543 112.312C728.61 164.181 723.632 214.786 717.563 266.427C709.246 337.211 719.023 405.531 720.369 476.226C721.652 543.093 728.915 610.073 731.162 677.105C734.171 766.892 731.416 855.606 730.743 945.318" stroke="#F6F1D5" stroke-width="2" stroke-miterlimit="10"/>
<path d="M478.733 -129C479.038 -57.736 481.019 13.5154 481.247 84.7794C481.362 120.538 472.778 148.172 461.883 181.706C438.164 254.676 469.946 334.873 471.572 409.271C472.841 467.621 474.149 525.972 475.584 584.322C476.562 624.352 474.416 665.013 481.489 704.574C486.783 734.23 493.031 763.999 487.888 794.223C481.019 834.644 456.398 867.332 453.452 909.18" stroke="#F6F1D5" stroke-width="2" stroke-miterlimit="10"/>
<path d="M220.248 -85.7741C219.626 -59.2775 211.575 -35.2575 210.115 -9.07684C206.357 58.207 208.795 126.426 208.071 193.811C207.474 248.8 206.115 303.209 212.477 357.908C217.505 401.159 225.327 444.663 225.365 488.318C225.39 515.459 219.448 540.528 215.461 567.113C210.75 598.474 212.337 630.48 214.369 662.018C216.464 694.491 218.877 726.951 216.794 759.488C213.759 807.073 203.525 853.698 202.103 901.447" stroke="#F6F1D5" stroke-width="2" stroke-miterlimit="10"/>
</g>
<defs>
<clipPath id="clip0_106_8">
<rect width="1538" height="1075" fill="white" transform="translate(-35 -129)"/>
</clipPath>
</defs>
</svg>
