<?xml version="1.0" encoding="UTF-8"?>
<svg id="Calque_2" data-name="Calque 2" xmlns="http://www.w3.org/2000/svg" viewBox="0 0 392.22 85.92">
  <defs>
    <style>
      .cls-1 {
        stroke-width: 2px;
      }

      .cls-1, .cls-2 {
        fill: none;
        stroke: #e6332a;
        stroke-miterlimit: 10;
      }

      .cls-3 {
        fill: #1d1d1b;
      }

      .cls-4 {
        fill: #fff;
      }

      .cls-5 {
        fill: #f7ef8a;
      }

      .cls-2 {
        stroke-width: 3px;
      }

      .cls-6 {
        fill: #ee75aa;
      }

      .cls-7 {
        fill: #f07f34;
      }

      .cls-8 {
        fill: #face15;
      }

      .cls-9 {
        fill: #f8c7cc;
      }
    </style>
  </defs>
  <g id="Calque_1-2" data-name="Calque 1">
    <path class="cls-9" d="M345.91,42.6h0C326.42,38.21,2.05,34.31,2.05,34.31c3.33-4.64,10.04-7.91,14.84-9.63,9.54-3.4,148.33-58.47,325.44,7.83,0,0,.57,1.02,1.3,2.8.09.22.19.46.28.7,0,.01.01.01.01.02.19.49.39,1.01.58,1.58.01.03.02.07.04.1.09.26.18.52.26.79.12.36.24.75.36,1.15.07.26.15.53.22.8.1.36.19.72.29,1.1.08.34.16.69.24,1.05Z"/>
    <path class="cls-8" d="M346.55,52.68c-.71,5.18-1.95,9.38-2.14,10.04,0,.02,0,.04-.02.06-.01.02-.01.03-.01.03,0,0-110.68,29.61-206.32,21.79C42.43,76.77,23.7,65.97,7.02,51.79c-1.55-1.32-2.81-2.59-3.8-3.82,0,0,337.92,5.57,343.33,4.71Z"/>
    <path class="cls-7" d="M387.11,74.89c-8.85,13.45-29.96,7.49-42.73-12.08,0,0,0-.01.01-.03.01-.02.02-.04.02-.06.19-.66,1.43-4.86,2.14-10.04.1-.74.19-1.5.26-2.27,0-.31-.01-.62-.02-.93,0-.15-.01-.31-.02-.46-.01-.23-.02-.46-.04-.68-.03-.54-.08-1.08-.15-1.6-.01-.14-.02-.27-.04-.4-.04-.33-.08-.65-.13-.97-.14-.96-.31-1.88-.5-2.76h0c-.08-.37-.16-.72-.24-1.06-.1-.38-.19-.74-.29-1.1-.07-.27-.15-.54-.22-.8-.12-.4-.24-.79-.36-1.15-.08-.27-.17-.53-.26-.79-.02-.03-.03-.07-.04-.1-.19-.57-.39-1.09-.58-1.58,0,0-.01,0-.01-.02-.09-.24-.19-.48-.28-.7-.73-1.78-1.3-2.8-1.3-2.8,0,0,22.99-32,45.97-16.85,0,0,12.76,22.47-9.7,30.81,0,0,17.36,14.98,8.51,28.42Z"/>
    <path class="cls-5" d="M346.81,50.41c-.07.77-.16,1.53-.26,2.27-5.41.86-343.33-4.71-343.33-4.71-.34-.42-.65-.83-.93-1.24-1.01-1.46-1.65-2.86-1.99-4.2-.79-3.08.03-5.83,1.75-8.22,0,0,324.37,3.9,343.86,8.3.19.88.36,1.8.5,2.76.05.32.09.64.13.97.02.13.03.26.04.4.07.52.12,1.06.15,1.6.02.22.03.45.04.68.01.15.02.31.02.46.01.31.02.62.02.93Z"/>
    <line class="cls-1" x1="344.5" y1="37.61" x2="375.97" y2="11.61"/>
    <line class="cls-1" x1="388.3" y1="15.66" x2="345.91" y2="42.61"/>
    <line class="cls-1" x1="345.91" y1="44.27" x2="391.91" y2="29.14"/>
    <line class="cls-1" x1="346.54" y1="46.34" x2="388.48" y2="60.47"/>
    <line class="cls-1" x1="346.79" y1="49.48" x2="388.3" y2="72.13"/>
    <line class="cls-1" x1="346.11" y1="55.48" x2="380" y2="80.89"/>
    <path class="cls-6" d="M64.32,19.78s19.74,18.87,7.15,50.3c0,0-1.28,7.91,2.68,2.43s16.21-26.04-2.3-50.3c0,0-7.15-6.51-7.53-2.43Z"/>
    <circle class="cls-4" cx="40.26" cy="40.08" r="15.32"/>
    <circle class="cls-3" cx="40.26" cy="40.08" r="12.03"/>
    <path class="cls-6" d="M123.89,21.13s-2.55,2.3-2.43-2.17,14.68-6.51,15.32.32-3.38,9.96-3.38,9.96c0,0,8.17-.64,9.45,3.57s.26,8.74-5.55,12.96c0,0,8.43,3.77,6.45,9.45s-8.17,7.6-8.17,7.6c0,0,5.87,6.96,2.04,11.94s-13.6,2.87-15.57,1.02,2.11-1.6,3.77-1.4,7.28,1.15,8.68-1.4.7-6.19-4.28-9.57c0,0-2.32-3.43,1.6-3.64s8.55-1.45,8.68-5.11-4.77-6-6.85-6.21-3.32-3.83-.3-4.38,8.89-5.49,7.36-8.43-4.38-5.4-11.36-2.81c0,0-4.38.85-.34-3.4s6.09-6.89,4.98-9.49-8.6-1.36-10.09,1.21Z"/>
    <path class="cls-6" d="M154.55,23.23s-2.55,2.3-2.43-2.17,14.68-6.51,15.32.32-3.38,9.96-3.38,9.96c0,0,8.17-.64,9.45,3.57s.26,8.74-5.55,12.96c0,0,8.43,3.77,6.45,9.45s-8.17,7.6-8.17,7.6c0,0,5.87,6.96,2.04,11.94s-13.6,2.87-15.57,1.02,2.11-1.6,3.77-1.4,7.28,1.15,8.68-1.4.7-6.19-4.28-9.57c0,0-2.32-3.43,1.6-3.64s8.55-1.45,8.68-5.11-4.77-6-6.85-6.21-3.32-3.83-.3-4.38,8.89-5.49,7.36-8.43-4.38-5.4-11.36-2.81c0,0-4.38.85-.34-3.4s6.09-6.89,4.98-9.49-8.6-1.36-10.09,1.21Z"/>
    <path class="cls-6" d="M185.2,23.23s-2.55,2.3-2.43-2.17,14.68-6.51,15.32.32-3.38,9.96-3.38,9.96c0,0,8.17-.64,9.45,3.57s.26,8.74-5.55,12.96c0,0,8.43,3.77,6.45,9.45s-8.17,7.6-8.17,7.6c0,0,5.87,6.96,2.04,11.94s-13.6,2.87-15.57,1.02,2.11-1.6,3.77-1.4,7.28,1.15,8.68-1.4.7-6.19-4.28-9.57c0,0-2.32-3.43,1.6-3.64s8.55-1.45,8.68-5.11-4.77-6-6.85-6.21-3.32-3.83-.3-4.38,8.89-5.49,7.36-8.43-4.38-5.4-11.36-2.81c0,0-4.38.85-.34-3.4s6.09-6.89,4.98-9.49-8.6-1.36-10.09,1.21Z"/>
    <path class="cls-6" d="M217.06,28.89s-1.98,1.78-1.88-1.68,11.39-5.05,11.88.25-2.62,7.72-2.62,7.72c0,0,6.34-.5,7.33,2.77s.2,6.78-4.31,10.05c0,0,6.54,2.92,5,7.33s-6.34,5.89-6.34,5.89c0,0,4.55,5.4,1.58,9.26s-10.55,2.23-12.08.79,1.63-1.24,2.92-1.09,5.64.89,6.73-1.09.54-4.8-3.32-7.43c0,0-1.8-2.66,1.24-2.82s6.63-1.12,6.73-3.96-3.7-4.65-5.31-4.82-2.57-2.97-.23-3.4,6.9-4.26,5.71-6.54-3.4-4.19-8.81-2.18c0,0-3.4.66-.26-2.64s4.72-5.35,3.86-7.36-6.67-1.06-7.82.94Z"/>
    <path class="cls-6" d="M251.53,34.48s-1.61,1.45-1.53-1.37,9.25-4.1,9.66.2-2.13,6.28-2.13,6.28c0,0,5.15-.4,5.95,2.25s.16,5.51-3.5,8.17c0,0,5.31,2.37,4.06,5.95s-5.15,4.79-5.15,4.79c0,0,3.7,4.39,1.29,7.52s-8.57,1.81-9.82.64,1.33-1.01,2.37-.89,4.59.72,5.47-.89.44-3.9-2.7-6.04c0,0-1.46-2.16,1.01-2.29s5.39-.91,5.47-3.22-3-3.78-4.32-3.92-2.09-2.41-.19-2.76,5.61-3.46,4.64-5.31-2.76-3.41-7.16-1.77c0,0-2.76.54-.21-2.15s3.84-4.35,3.14-5.98-5.42-.86-6.36.76Z"/>
    <path class="cls-6" d="M91.07,19.05s-2.55,2.3-2.43-2.17,14.68-6.51,15.32.32-3.38,9.96-3.38,9.96c0,0,8.17-.64,9.45,3.57s.26,8.74-5.55,12.96c0,0,8.43,3.77,6.45,9.45s-8.17,7.6-8.17,7.6c0,0,5.87,6.96,2.04,11.94s-13.6,2.87-15.57,1.02,2.11-1.6,3.77-1.4,7.28,1.15,8.68-1.4.7-6.19-4.28-9.57c0,0-2.32-3.43,1.6-3.64s8.55-1.45,8.68-5.11-4.77-6-6.85-6.21-3.32-3.83-.3-4.38,8.89-5.49,7.36-8.43-4.38-5.4-11.36-2.81c0,0-4.38.85-.34-3.4s6.09-6.89,4.98-9.49-8.6-1.36-10.09,1.21Z"/>
    <g>
      <path class="cls-7" d="M121.44,37.55s-5.96.68-2.04,7.15c3.91,6.47,27.74,30.64,50.04,14.98,0,0,10.21-20.77-10.89-25.36,0,0-27.4,3.23-37.11,3.23Z"/>
      <path class="cls-2" d="M163.41,57.58s-30.38-2.15-41.36-14.03c0,0-3.83-3.84,8.11-3.46s27.19.19,29.04-.77"/>
      <path class="cls-2" d="M123.13,40.08s3.38,10.23,43.72,8.06"/>
    </g>
    <path class="cls-6" d="M277.08,36.1s-2.31.76-.43-1.69,5.34.83,5.1,5-1.79,5.34-1.79,5.34c0,0,3.27,2.62,1.15,8.07,0,0,4.09,3.93.72,10.76s-7.16,1.9-7.16,1.9c0,0-.65-1.1,1.64-1.34s5.04.79,4.8-4.79c0,0-.69-4.48-3.53-3.14,0,0-2.66-.48-.41-2.62,0,0,3.03-1.62,2.51-4s-1.49-2.52-3.89-2.24c0,0-1.67-1,.45-2.55s3.89-3.24,3.61-4.86-.78-4.14-2.77-3.83Z"/>
    <path class="cls-6" d="M293.45,38.67s-2.31.62-.43-1.38,5.34.68,5.1,4.1-1.79,4.38-1.79,4.38c0,0,3.27,2.15,1.15,6.61,0,0,4.09,3.22.72,8.82s-7.16,1.55-7.16,1.55c0,0-.65-.9,1.64-1.1s5.04.65,4.8-3.93c0,0-.69-3.67-3.53-2.57,0,0-2.66-.4-.41-2.15,0,0,3.03-1.33,2.51-3.28s-1.49-2.06-3.89-1.84c0,0-1.67-.82.45-2.09s3.89-2.66,3.61-3.98-.78-3.39-2.77-3.14Z"/>
    <path class="cls-6" d="M309.36,41.95s-1.96-1.12.53-2.67,7.1,3.11,3.77,9.37c0,0,5.4,4.86,2.39,9.85s-5.52,3.91-5.52,3.91c0,0-1.61-1.52.23-2.99s5.2-5.4,1.08-7.77.18-3.36.18-3.36c0,0,2.66-7.85-2.66-6.34Z"/>
    <path class="cls-6" d="M325.28,44.1s-1.96-.84.53-2.02,7.1,2.35,3.77,7.07c0,0,5.4,3.67,2.39,7.43s-5.52,2.95-5.52,2.95c0,0-1.61-1.14.23-2.26s5.2-4.08,1.08-5.86.18-2.53.18-2.53c0,0,2.66-5.93-2.66-4.78Z"/>
  </g>
</svg>