<?xml version="1.0" encoding="UTF-8"?>
<svg id="Calque_1" data-name="Calque 1" xmlns="http://www.w3.org/2000/svg" viewBox="0 0 158.51 153.35">
  <defs>
    <style>
      .cls-1 {
        fill: #20542e;
      }

      .cls-2 {
        fill: #c22b18;
      }
    </style>
  </defs>
  <path class="cls-2" d="M112.07,21.34c10.95.88,22.77,6.1,30.42,13.97,22.64,23.27,19.95,67.53.31,91.87-7.67,9.51-18.58,17.03-30.11,21.11-6.09,2.16-13.74,4.03-20.17,4.66-9.06.88-21.4.3-30.42-1.24-6.75-1.16-14.21-3.5-20.49-6.21-12.19-5.25-22.62-14.31-29.8-25.45-14.61-22.7-16.97-57.5.31-79.46,6.44-8.19,18.87-16.21,29.18-18,6.11-1.06,15.95-1.15,21.73,1.24.14-.1.28-.19.44-.24.14-.05.27-.07.36-.02,1.22.73,4.04,3.87,3.24,5.23-.06.24-.15.56-.36.62-.59.16-6.25.09-7.1,0l-.45-.62-.26.63c-5.34,1.1-19.76,8.02-21.85,12.75,9.01-2.85,18.38-4.39,27.88-5.34,2.78-.7,5.57-1.12,8.36-1.26.39,6.86,1.18,13.2,2.66,19.93.13.6,2.36,7.81,2.94,7.09l6.1-25.68c.1-.51.5-.75.99-.81l34.67,4.99c1.33-.49-2.23-3.08-2.71-3.38-7.08-4.38-15.35-7.31-23.76-6.98-.93-.02-1.22-.32-1.27-1.21-.04-.79,6.6-6.17,7.74-7.01l1.18-.24c1.47-1.3,8.49-2.25,9.76-1.38.18.12.34.28.48.45Z"/>
  <path class="cls-1" d="M62.1,7.37c.94.58,2.84,2.16,3.73,2.94,3.93,3.48,7.07,7.94,9.46,12.57,1.09-.48,3.32-16.28,3.97-18.69.31-1.12.67-2.63,1.61-3.36,2.28-1.75,7.77-.73,8.22,2.61-2.57,6.52-3.79,13.42-4.64,20.36.54.14.62-.22.93-.46,2.36-1.81,4.59-4.99,6.83-6.99,4.53-4.05,8.74-6.06,13.87-8.95,2.15-1.21,5.2-3.6,7.24-4.4,3.23-1.27-.02,3.49-.62,4.66-.27,2.85-2.51,5.86-4.24,8.19s-3.88,5.18-6.63,6.4c-2.24,2.13-5.09,4.13-7.3,6.22-.13.13-1.34,1.35-1.08,1.54,2.99.38,6.48.12,9.39.7,3.95.78,15.41,5.46,17.94,8.45.78.92.66,1.45.6,2.66l-35.7-5.14-6.38,26.85c-1.37.42-2.72-3.92-3.08-4.96-2.42-7.17-3.19-15.11-3.27-22.65-2.65.39-5.29,1.12-7.94,1.52-5.94.9-12.05,1.28-17.9,2.59-3.65.82-7.14,2.31-10.78,3.03-.06-.45,0-.81.17-1.22,1.62-4.07,18.21-13.05,22.64-13.05h7.91c-.49-1.47-2.67-4.4-4.03-4.97-3.98-4.65-7.48-9.39-10.68-14.61-.77-1.26-4.04-6.3-4.22-7.26-.15-.82.79-.45,1.25-.32,2.75.79,10.23,4.23,12.72,5.74Z"/>
</svg>